<svg width="34" height="34" viewBox="0 0 34 34" fill="none" xmlns="http://www.w3.org/2000/svg">
<path d="M17 34C7.62632 34 0 26.3737 0 17C0 7.62632 7.62632 0 17 0C26.3737 0 34 7.62632 34 17C34 26.3737 26.3737 34 17 34ZM17 2.125C8.7975 2.125 2.125 8.7975 2.125 17C2.125 25.2007 8.7975 31.875 17 31.875C25.2007 31.875 31.875 25.2007 31.875 17C31.875 8.7975 25.2007 2.125 17 2.125Z" fill="white"/>
<path d="M21.2498 24.4375H12.7499C12.2992 24.4375 11.8977 24.1526 11.7469 23.7277L8.9291 15.7292C8.77399 15.2871 8.92697 14.7943 9.30524 14.518L16.39 9.35203C16.7619 9.08 17.2696 9.08 17.6415 9.35203L24.7287 14.518C25.1091 14.7964 25.2599 15.2913 25.1027 15.7335L22.2489 23.732C22.0999 24.1548 21.6984 24.4375 21.2499 24.4375L21.2498 24.4375ZM13.5021 22.3125H20.4994L22.8348 15.7675L17.0167 11.526L11.1962 15.7675L13.5021 22.3125Z" fill="white"/>
<path d="M17.0209 5.94999C16.8466 5.94999 16.6725 5.90753 16.5172 5.82239L11.1622 2.93227C10.6459 2.65407 10.4524 2.00801 10.7308 1.49388C11.0114 0.975439 11.6553 0.781888 12.1716 1.06248L17.0209 3.68054L21.851 1.08379C22.5141 0.726857 23.4277 1.25597 23.4277 2.01867C23.4277 2.47545 23.1429 2.86654 22.7413 3.01523L17.5223 5.8223C17.3672 5.90744 17.1928 5.94989 17.0209 5.94989L17.0209 5.94999Z" fill="white"/>
<path d="M1.12679 19.1037C0.869702 19.1037 0.610482 19.0103 0.408661 18.8232C-0.0248751 18.4238 -0.0502538 17.7521 0.347 17.3207L4.39306 12.9242L3.25394 7.64155C3.13062 7.06784 3.49609 6.50267 4.06982 6.37723C4.64589 6.2475 5.20894 6.61938 5.33225 7.19329L6.58588 13.0157C6.65821 13.3536 6.5624 13.7063 6.32879 13.9591L1.90873 18.7639C1.69837 18.9892 1.41353 19.1037 1.12679 19.1037V19.1037Z" fill="white"/>
<path d="M11.6024 33.0437C11.1539 33.0437 10.7354 32.7568 10.5909 32.3064L9.13517 27.7737L4.12861 27.4953C3.54424 27.4635 3.09362 26.9619 3.1278 26.3775C3.15958 25.791 3.62727 25.2979 4.24767 25.3745L9.98517 25.6911C10.4251 25.7146 10.8034 26.0077 10.9372 26.4263L12.6158 31.6539C12.7944 32.2148 12.4882 32.812 11.9294 32.9906C11.8191 33.0267 11.7108 33.0437 11.6024 33.0437L11.6024 33.0437Z" fill="white"/>
<path d="M21.5476 33.32C21.3989 33.32 21.2438 33.2882 21.1012 33.2223C20.5681 32.9756 20.3364 32.3424 20.583 31.8112L23.133 26.3075C23.2753 25.9973 23.558 25.7763 23.8917 25.7125L30.2455 24.4589C30.8128 24.3377 31.3782 24.7181 31.493 25.2961C31.6078 25.8719 31.2337 26.4309 30.6558 26.5436L24.8334 27.6931L22.5108 32.7039C22.332 33.0905 21.9473 33.3201 21.5477 33.3201L21.5476 33.32Z" fill="white"/>
<path d="M32.8733 19.1038C32.5842 19.1038 32.2975 18.9869 32.0893 18.7594L27.6927 13.9547C27.461 13.6997 27.3654 13.349 27.4399 13.0134L28.6935 7.23343C28.819 6.65973 29.3905 6.29424 29.9557 6.4195C30.5315 6.54496 30.8927 7.11012 30.7696 7.68381L29.6348 12.9261L33.6616 17.3227C34.0591 17.7562 34.0271 18.4298 33.5957 18.8251C33.3856 19.0125 33.1304 19.1038 32.8733 19.1038V19.1038Z" fill="white"/>
<path d="M17.0166 11.2734C16.4301 11.2734 15.9541 10.7975 15.9541 10.2109V4.87708C15.9541 4.29056 16.4301 3.81458 17.0166 3.81458C17.6031 3.81458 18.0791 4.29056 18.0791 4.87708V10.2109C18.0791 10.7996 17.6031 11.2734 17.0166 11.2734Z" fill="white"/>
<path d="M9.93227 27.8205C9.69226 27.8205 9.45201 27.7399 9.25446 27.5741C8.80384 27.2001 8.74242 26.5308 9.11856 26.078L11.9342 22.6951C12.3103 22.2466 12.9796 22.1852 13.4302 22.5613C13.8809 22.9353 13.9423 23.6046 13.5661 24.0574L10.7505 27.4403C10.5402 27.6889 10.2382 27.8205 9.93227 27.8205Z" fill="white"/>
<path d="M24.1031 27.8181C23.8015 27.8181 23.5017 27.6884 23.2913 27.4398L20.4375 24.059C20.0571 23.6105 20.1166 22.9413 20.5651 22.563C21.0115 22.1868 21.6829 22.2421 22.0612 22.6905L24.915 26.0714C25.2954 26.5198 25.2359 27.1891 24.7874 27.5674C24.5877 27.7353 24.3456 27.8181 24.1031 27.8181Z" fill="white"/>
<path d="M24.1042 16.439C23.711 16.439 23.3349 16.2201 23.1501 15.8439C22.893 15.3169 23.1098 14.6816 23.6368 14.4224L28.0165 12.2782C28.5392 12.0211 29.181 12.2379 29.4381 12.7648C29.6952 13.2918 29.4784 13.9272 28.9514 14.1864L24.5717 16.3306C24.4208 16.4048 24.2615 16.439 24.1042 16.439H24.1042Z" fill="white"/>
<path d="M9.92988 16.439C9.77264 16.439 9.61539 16.4051 9.46455 16.3306L5.08693 14.1907C4.55995 13.9336 4.34106 13.2961 4.60027 12.7691C4.85949 12.2421 5.49271 12.0254 6.02184 12.2824L10.3995 14.4224C10.9264 14.6795 11.1453 15.3169 10.8861 15.8439C10.7014 16.2201 10.3231 16.439 9.92987 16.439H9.92988Z" fill="white"/>
</svg>
