  <svg xmlns="http://www.w3.org/2000/svg" width="14.981" height="17.052"
                viewBox="0 0 14.981 17.052">
                <g transform="translate(-31.423 -0.39)">
                  <path
                    d="M46.4,4.66a4.3,4.3,0,0,1-2.6-.868A4.3,4.3,0,0,1,42.084.39H39.3V8l0,4.167a2.524,2.524,0,1,1-1.731-2.391V6.947a5.479,5.479,0,0,0-.8-.059A5.339,5.339,0,0,0,32.75,8.682a5.232,5.232,0,0,0,.236,7.215,5.431,5.431,0,0,0,.5.439,5.339,5.339,0,0,0,3.273,1.106,5.479,5.479,0,0,0,.8-.059A5.321,5.321,0,0,0,40.538,15.9a5.213,5.213,0,0,0,1.564-3.71l-.014-6.223A7.055,7.055,0,0,0,46.4,7.431V4.659H46.4Z"
                    transform="translate(0)" />
                </g>
              </svg>

