      <svg xmlns="http://www.w3.org/2000/svg" width="18.877" height="15.337"
                viewBox="0 0 18.877 15.337">
                <g transform="translate(0)">
                  <path
                    d="M18.877,49.816a8.068,8.068,0,0,1-2.23.611,3.848,3.848,0,0,0,1.7-2.139,7.734,7.734,0,0,1-2.454.937A3.87,3.87,0,0,0,9.2,51.871a3.985,3.985,0,0,0,.09.882,10.954,10.954,0,0,1-7.977-4.048A3.871,3.871,0,0,0,2.5,53.878,3.822,3.822,0,0,1,.755,53.4v.042a3.888,3.888,0,0,0,3.1,3.8,3.862,3.862,0,0,1-1.015.127,3.422,3.422,0,0,1-.733-.066A3.907,3.907,0,0,0,5.724,60a7.776,7.776,0,0,1-4.8,1.651A7.249,7.249,0,0,1,0,61.6a10.9,10.9,0,0,0,5.937,1.737A10.939,10.939,0,0,0,16.951,52.325c0-.171-.006-.336-.014-.5A7.72,7.72,0,0,0,18.877,49.816Z"
                    transform="translate(0 -48)" />
                </g>
              </svg>

