<svg width="42" height="43" viewBox="0 0 42 43" fill="none" xmlns="http://www.w3.org/2000/svg">
<path fill-rule="evenodd" clip-rule="evenodd" d="M38.0625 26.4615C38.0625 26.4615 38.0625 17.7868 38.0625 11.9077C38.0625 10.1533 37.3708 8.47034 36.1403 7.22996C34.9099 5.98957 33.2404 5.29231 31.5 5.29231C25.6738 5.29231 16.3262 5.29231 10.5 5.29231C8.75962 5.29231 7.09012 5.98957 5.85966 7.22996C4.62919 8.47034 3.9375 10.1533 3.9375 11.9077C3.9375 17.7808 3.9375 27.2038 3.9375 33.0769C3.9375 34.8313 4.62919 36.5143 5.85966 37.7547C7.09012 38.995 8.75962 39.6923 10.5 39.6923C16.3262 39.6923 25.6738 39.6923 31.5 39.6923C33.2404 39.6923 34.9099 38.995 36.1403 37.7547C37.3708 36.5143 38.0625 34.8313 38.0625 33.0769C38.0625 32.2996 38.0625 31.7538 38.0625 31.7538C38.0625 31.0235 37.4745 30.4308 36.75 30.4308C36.0255 30.4308 35.4375 31.0235 35.4375 31.7538C35.4375 31.7538 35.4375 32.2996 35.4375 33.0769C35.4375 34.1294 35.0228 35.1389 34.2845 35.8838C33.5455 36.6281 32.5441 37.0462 31.5 37.0462C25.6738 37.0462 16.3262 37.0462 10.5 37.0462C9.45591 37.0462 8.45447 36.6281 7.71553 35.8838C6.97725 35.1389 6.5625 34.1294 6.5625 33.0769C6.5625 27.2038 6.5625 17.7808 6.5625 11.9077C6.5625 10.8552 6.97725 9.84568 7.71553 9.10079C8.45447 8.35656 9.45591 7.93847 10.5 7.93847C16.3262 7.93847 25.6738 7.93847 31.5 7.93847C32.5441 7.93847 33.5455 8.35656 34.2845 9.10079C35.0228 9.84568 35.4375 10.8552 35.4375 11.9077C35.4375 17.7868 35.4375 26.4615 35.4375 26.4615C35.4375 27.1919 36.0255 27.7846 36.75 27.7846C37.4745 27.7846 38.0625 27.1919 38.0625 26.4615Z" fill="white"/>
<path fill-rule="evenodd" clip-rule="evenodd" d="M38.0625 11.9077C38.0625 10.1533 37.3708 8.47034 36.1403 7.22996C34.9099 5.98957 33.2404 5.29231 31.5 5.29231C25.6738 5.29231 16.3262 5.29231 10.5 5.29231C8.75962 5.29231 7.09012 5.98957 5.85966 7.22996C4.62919 8.47034 3.9375 10.1533 3.9375 11.9077C3.9375 12.685 3.9375 13.2308 3.9375 13.2308C3.9375 13.9618 4.52484 14.5539 5.25 14.5539H36.75C37.4752 14.5539 38.0625 13.9618 38.0625 13.2308V11.9077ZM35.4375 11.9077C35.4375 10.8552 35.0228 9.84568 34.2845 9.10079C33.5455 8.35656 32.5441 7.93847 31.5 7.93847C25.6738 7.93847 16.3262 7.93847 10.5 7.93847C9.45591 7.93847 8.45447 8.35656 7.71553 9.10079C6.97725 9.84568 6.5625 10.8552 6.5625 11.9077H35.4375Z" fill="white"/>
<path fill-rule="evenodd" clip-rule="evenodd" d="M13.125 21.9446L17.4471 17.5877C17.9589 17.071 18.7911 17.071 19.3029 17.5877C19.8155 18.1037 19.8155 18.9425 19.3029 19.4585L14.0529 24.7508C13.5404 25.2675 12.7096 25.2675 12.1971 24.7508L9.57207 22.1046C9.05953 21.5886 9.05953 20.7498 9.57207 20.2338C10.0839 19.7172 10.9161 19.7172 11.4279 20.2338L13.125 21.9446Z" fill="white"/>
<path fill-rule="evenodd" clip-rule="evenodd" d="M13.125 31.2061L17.4471 26.8492C17.9589 26.3325 18.7911 26.3325 19.3029 26.8492C19.8155 27.3652 19.8155 28.204 19.3029 28.72L14.0529 34.0123C13.5404 34.529 12.7096 34.529 12.1971 34.0123L9.57207 31.3662C9.05953 30.8502 9.05953 30.0113 9.57207 29.4954C10.0839 28.9787 10.9161 28.9787 11.4279 29.4954L13.125 31.2061Z" fill="white"/>
<path fill-rule="evenodd" clip-rule="evenodd" d="M23.625 22.4923H31.5C32.2245 22.4923 32.8125 21.8996 32.8125 21.1692C32.8125 20.4389 32.2245 19.8462 31.5 19.8462H23.625C22.9005 19.8462 22.3125 20.4389 22.3125 21.1692C22.3125 21.8996 22.9005 22.4923 23.625 22.4923Z" fill="white"/>
<path fill-rule="evenodd" clip-rule="evenodd" d="M23.625 31.7539H31.5C32.2245 31.7539 32.8125 31.1611 32.8125 30.4308C32.8125 29.7004 32.2245 29.1077 31.5 29.1077H23.625C22.9005 29.1077 22.3125 29.7004 22.3125 30.4308C22.3125 31.1611 22.9005 31.7539 23.625 31.7539Z" fill="white"/>
<path fill-rule="evenodd" clip-rule="evenodd" d="M14.4375 7.93846V3.96923C14.4375 3.23889 13.8495 2.64615 13.125 2.64615C12.4005 2.64615 11.8125 3.23889 11.8125 3.96923V7.93846C11.8125 8.66879 12.4005 9.26153 13.125 9.26153C13.8495 9.26153 14.4375 8.66879 14.4375 7.93846Z" fill="white"/>
<path fill-rule="evenodd" clip-rule="evenodd" d="M30.1875 7.93846V3.96923C30.1875 3.23889 29.5995 2.64615 28.875 2.64615C28.1505 2.64615 27.5625 3.23889 27.5625 3.96923V7.93846C27.5625 8.66879 28.1505 9.26153 28.875 9.26153C29.5995 9.26153 30.1875 8.66879 30.1875 7.93846Z" fill="white"/>
</svg>
