<svg width="32" height="32" viewBox="0 0 32 32" fill="none" xmlns="http://www.w3.org/2000/svg">
<path d="M15.996 29.5454H2.45458V16.004C2.45458 8.53204 8.53043 2.45781 15.996 2.45781C23.468 2.45781 29.5422 8.53204 29.5422 16.004C29.5422 23.4696 23.468 29.5454 15.996 29.5454V29.5454ZM15.996 18.4279H9.13639C8.45448 18.4279 7.90668 18.9757 7.90668 19.6576C7.90668 20.3379 8.45448 20.8825 9.13639 20.8825H15.996C16.6779 20.8825 17.2289 20.3379 17.2289 19.6576C17.2289 18.9757 16.6779 18.4279 15.996 18.4279ZM22.8604 11.9061H9.13639C8.45448 11.9061 7.90668 12.4539 7.90668 13.1342C7.90668 13.8177 8.45448 14.3671 9.13639 14.3671H22.8604C23.5423 14.3671 24.0933 13.8177 24.0933 13.1342C24.0933 12.4539 23.5423 11.9061 22.8604 11.9061ZM15.996 0C7.17467 0 0 7.1779 0 16.004V30.7751C0 31.4522 0.547795 32 1.22486 32H15.996C24.8221 32 32 24.8253 32 16.004C32 7.1779 24.8221 0 15.996 0Z" fill="white"/>
</svg>
