<svg width="89" height="75" viewBox="0 0 89 75" fill="none" xmlns="http://www.w3.org/2000/svg">
<path d="M31.5118 13.0084C31.5118 10.4355 32.2735 7.92052 33.7007 5.7813C35.1278 3.64209 37.1563 1.97478 39.5296 0.990207C41.9029 0.00563604 44.5144 -0.251972 47.0339 0.249958C49.5533 0.751888 51.8676 1.99081 53.6841 3.81006C55.5005 5.62931 56.7375 7.94718 57.2386 10.4706C57.7398 12.9939 57.4826 15.6095 56.4995 17.9864C55.5165 20.3634 53.8518 22.395 51.7159 23.8244C49.58 25.2538 47.0688 26.0167 44.5 26.0167C41.0553 26.0167 37.7517 24.6462 35.3159 22.2067C32.8802 19.7671 31.5118 16.4584 31.5118 13.0084ZM73.2298 26.1838C75.4065 26.1866 77.5351 25.5425 79.3461 24.333C81.1572 23.1235 82.5692 21.4031 83.4034 19.3895C84.2377 17.3759 84.4567 15.1596 84.0327 13.0213C83.6087 10.883 82.5608 8.9187 81.0217 7.37715C79.4825 5.8356 77.5213 4.78607 75.3862 4.36143C73.2512 3.9368 71.0384 4.15614 69.0279 4.99169C67.0174 5.82725 65.2997 7.24145 64.0921 9.05527C62.8845 10.8691 62.2413 13.001 62.2441 15.1811C62.2459 16.629 62.5327 18.0623 63.088 19.3991C63.6434 20.736 64.4564 21.95 65.4805 22.9719C66.5047 23.9938 67.72 24.8035 69.0568 25.3546C70.3937 25.9057 71.8259 26.1875 73.2715 26.1838H73.2298ZM15.7285 4.16435C13.5547 4.16163 11.4289 4.80402 9.61941 6.01043C7.80992 7.21684 6.3979 8.93317 5.56162 10.9427C4.72534 12.9523 4.50231 15.1649 4.92067 17.3014C5.33903 19.4378 6.38004 21.4021 7.91225 22.9464C9.44447 24.4907 11.3992 25.5457 13.5296 25.9782C15.66 26.4107 17.8706 26.2013 19.8823 25.3764C21.894 24.5515 23.6165 23.1482 24.8325 21.3435C26.0484 19.5389 26.7032 17.4139 26.7142 15.2368C26.7215 13.7865 26.4429 12.3491 25.8942 11.007C25.3456 9.66483 24.5378 8.44439 23.5171 7.41567C22.4964 6.38695 21.283 5.57019 19.9464 5.01225C18.6099 4.45431 17.1765 4.16616 15.7285 4.16435ZM73.2715 31.4763C70.2273 31.4171 67.2133 32.0905 64.4829 33.4401C65.4352 34.551 66.2738 35.7548 66.986 37.0334C71.5889 45.39 69.5447 57.8134 67.0695 66.6991H84.3268C84.3268 66.6991 92.3784 47.5766 87.3444 38.5237C83.2839 31.1978 74.2867 31.4763 73.2715 31.4763ZM15.7285 31.4763C14.7133 31.4763 5.71612 31.1978 1.65556 38.5237C-3.37842 47.5766 4.67317 66.7688 4.67317 66.7688H21.9305C19.4553 57.883 17.4111 45.4039 22.014 37.1031C22.7262 35.8244 23.5648 34.6206 24.5171 33.5097C21.7926 32.1361 18.7784 31.4387 15.7285 31.4763ZM44.5 30.9192C43.2346 30.9192 31.9846 30.571 26.8811 39.7493C21.9027 48.7047 27.1592 65.5571 29.5649 72.2145C29.8738 73.0349 30.4254 73.7414 31.1462 74.2392C31.8669 74.737 32.7222 75.0024 33.5977 75H55.4023C56.2778 75.0024 57.1331 74.737 57.8538 74.2392C58.5745 73.7414 59.1262 73.0349 59.4351 72.2145C61.8408 65.5571 67.0973 48.6629 62.1189 39.7493C57.0154 30.5571 45.7654 30.9192 44.5 30.9192Z" fill="black"/>
</svg>
