<svg width="27" height="27" viewBox="0 0 27 27" fill="none" xmlns="http://www.w3.org/2000/svg">
<path d="M26.3416 23.1832L18.5417 15.3615C20.9745 11.4758 20.4979 6.31149 17.1372 2.92712C13.1745 -1.00878 6.72887 -0.983708 2.81635 3.05246C-1.02093 6.98836 -0.920608 13.3811 3.01699 17.2417C6.37775 20.5258 11.5192 20.952 15.3565 18.5453L23.1565 26.3419C24.0343 27.2194 25.4638 27.2194 26.3416 26.3419C27.2195 25.4645 27.2195 24.0606 26.3416 23.1832ZM14.905 14.9103C12.2215 17.5927 7.83241 17.5927 5.14882 14.9103C2.46523 12.2279 2.46523 7.84072 5.14882 5.15829C7.83241 2.47587 12.2215 2.47587 14.905 5.15829C17.5886 7.84072 17.5886 12.2279 14.905 14.9103Z" fill="white"/>
</svg>
