<svg width="79" height="95" viewBox="0 0 79 95" fill="none" xmlns="http://www.w3.org/2000/svg">
<path d="M18.3565 58.1L0.956464 85.4C-0.843536 88.3 -0.0435357 92.1 2.85646 94C3.85646 94.7 5.05646 95 6.15646 95C8.15646 95 10.2565 94 11.3565 92.1L28.4565 65.3L23.8565 63.1C21.4565 62 19.5565 60.3 18.3565 58.1Z" fill="black"/>
<path d="M60.0565 21.8C66.0764 21.8 70.9565 16.9199 70.9565 10.9C70.9565 4.8801 66.0764 0 60.0565 0C54.0366 0 49.1565 4.8801 49.1565 10.9C49.1565 16.9199 54.0366 21.8 60.0565 21.8Z" fill="black"/>
<path d="M59.6564 61.3C59.1564 59.5 57.9564 58 56.2564 57.2L44.0564 51.5L52.4564 39.1L56.6564 48.6C57.4564 50.5 59.3564 51.7 61.3564 51.7C61.8564 51.7 62.2564 51.6 62.7564 51.5L74.7564 48.2C77.5564 47.4 79.1564 44.6 78.3564 41.8C77.5564 39 74.7564 37.4 71.9564 38.2L64.2564 40.3L60.5564 31.9C59.4565 29.4 57.6564 27.3 55.3564 25.8L46.4564 20C43.8564 18.3 40.6564 17.5 37.5564 17.7L24.4564 18.7C23.0564 18.8 21.8564 19.5 20.9564 20.5L12.0564 31C10.1564 33.2 10.4564 36.4 12.6564 38.3C14.8564 40.2 18.0564 39.9 19.9564 37.7L27.4564 28.9L35.2564 28.3L23.9564 48.4C23.1564 49.9 22.9564 51.7 23.4564 53.3C23.9564 54.9 25.1564 56.3 26.7564 57L44.2564 65.2L34.4564 78.5C32.4564 81.3 33.0564 85.2 35.7564 87.2C36.8564 88 38.1565 88.4 39.4564 88.4C41.3564 88.4 43.2564 87.5 44.4564 85.9L58.6564 66.5C59.7564 65 60.0564 63.1 59.6564 61.3Z" fill="black"/>
<path d="M68.2565 94.9C73.5032 94.9 77.7565 90.6467 77.7565 85.4C77.7565 80.1533 73.5032 75.9 68.2565 75.9C63.0098 75.9 58.7565 80.1533 58.7565 85.4C58.7565 90.6467 63.0098 94.9 68.2565 94.9Z" fill="black"/>
</svg>
