<svg xmlns="http://www.w3.org/2000/svg" width="80.397" height="77.969" viewBox="0 0 80.397 77.969"><g transform="translate(0 -7.728)"><path d="M78.808,7.8h-31.5a1.589,1.589,0,0,0,0,3.178h29.91V59.908H61.639l1.415-6.461a6.028,6.028,0,0,0,2.625-7,6.617,6.617,0,0,0-5.532-4.278V19.249a1.589,1.589,0,0,0-1.589-1.589H21.838a1.589,1.589,0,0,0-1.589,1.589V42.169a6.54,6.54,0,0,0-5.713,4.908,6.1,6.1,0,0,0,2.808,6.37l1.449,6.46H3.178V10.98H33.009a1.589,1.589,0,1,0,0-3.178H1.589A1.589,1.589,0,0,0,0,9.391V61.5a1.589,1.589,0,0,0,1.589,1.589H19.506l4.781,21.321a1.6,1.6,0,0,0,2.657.793L34.8,77.573l3.141,3.081L35.51,83.038a1.6,1.6,0,0,0,.442,2.577,1.717,1.717,0,0,0,1.989-.51l2.271-2.224,2.2,2.154a1.694,1.694,0,0,0,1.957.48,1.6,1.6,0,0,0,.444-2.576l-2.326-2.282,3.145-3.081,7.968,7.72a1.605,1.605,0,0,0,2.658-.8l4.688-21.408H78.808A1.589,1.589,0,0,0,80.4,61.5V9.391A1.589,1.589,0,0,0,78.808,7.8ZM55.581,72.715l-2.495-2.444,3.857-3.778Zm2.6-11.885L55.8,63.169l-3.024-3.031,5.8-5.631c.332,0,.664.005,1-.006Zm-7.657-2.942-3.373-3.381h6.857ZM48.246,60.1l-2.785,2.7-2.969-2.908L45.3,57.146Zm-4.514-5.594-3.51,3.164-3.569-3.164Zm-8.789,2.442,3.008,2.946-2.985,2.924-3.024-2.93Zm-5.285.728-3.271-3.17h6.508Zm-7.839-3.17L27.387,59.9l-3.033,2.971-2.1-2.053L20.837,54.5C21.164,54.512,21.492,54.507,21.819,54.507Zm1.713,12.01,3.826,3.753-2.447,2.4Zm3.091-1.42,3.047-2.985,3.024,2.93-3.066,3Zm8.355,2.158,2.95,2.858-3.112,3.02L31.9,70.272Zm2.271-2.224,2.973-2.912,2.959,2.9L40.209,67.9Zm8.2,2.21,3.094,3.03-2.928,2.868-3.124-3.027Zm2.281-2.214,2.758-2.676,3.035,3.042-2.71,2.654Zm9.237-44.19V42.121H23.427V20.838Zm-38.422,25.4a4.468,4.468,0,0,1,3.221-.936H59.092c1.752,0,3.721,1.03,3.722,3.016,0,2.042-2.021,3.014-3.8,3.014H21.643a4.166,4.166,0,0,1-3.335-1.183,2.75,2.75,0,0,1,.239-3.911Zm8.219,34.707-1.038-4.629,3.9-3.818,2.907,2.851ZM40.214,78.43l-3.13-3.07,3.127-3.034,3.135,3.037Zm10.6-5.935,3.964,3.882L53.76,81.028,47.9,75.35Z" transform="translate(0 -0.062)" fill="#0d3eac"/><circle cx="1.57" cy="1.57" r="1.57" transform="translate(38.641 7.728)" fill="#0d3eac"/></g></svg>