<svg xmlns="http://www.w3.org/2000/svg" xmlnsXlink="http://www.w3.org/1999/xlink" width="62.214" height="62.221" viewBox="0 0 62.214 62.221"><defs><linearGradient id="a" x1="-1.495" y1="-0.575" x2="-1.597" y2="0.679" gradientUnits="objectBoundingBox"><stop offset="0" stop-color="#fff"/><stop offset="0.996" stop-color="#f36f56"/><stop offset="1" stop-color="#f36f56"/></linearGradient><clipPath id="b"><path d="M1732.322,1025.429a31.086,31.086,0,0,0,19.336,39.5,31.373,31.373,0,0,0,5.95,1.412,31.1,31.1,0,0,0,20.752-57.12,30.671,30.671,0,0,0-6.535-3.131,31.105,31.105,0,0,0-38.733,17.318C1732.816,1024.071,1732.557,1024.746,1732.322,1025.429Z" transform="translate(-1730.633 -1004.403)" fill="rgba(0,0,0,0)"/></clipPath><linearGradient id="c" x1="-12.734" y1="-6.509" x2="-11.321" y2="-6.509" gradientUnits="objectBoundingBox"><stop offset="0" stop-color="#ab316d"/><stop offset="1" stop-color="#792d3d"/></linearGradient><linearGradient id="d" x1="-10.907" y1="-5.46" x2="-9.709" y2="-5.46" xlink:href="#c"/><linearGradient id="e" x1="-10.893" y1="-8.974" x2="-10.043" y2="-8.974" xlink:href="#c"/><linearGradient id="f" x1="-5.461" y1="-7.841" x2="-4.307" y2="-7.841" xlink:href="#c"/><linearGradient id="g" x1="-2.531" y1="0.5" x2="-1.531" y2="0.5" gradientUnits="objectBoundingBox"><stop offset="0" stop-color="#fff"/><stop offset="0.996" stop-color="#fff"/><stop offset="1" stop-color="#f36f56"/></linearGradient></defs><g opacity="0.17"><g transform="translate(0)"><path d="M1731.822,1044a31.079,31.079,0,0,0,42.777,19.824q1.135-.515,2.226-1.12a31.1,31.1,0,1,0-43.734-39.295c-.275.658-.533,1.333-.769,2.017A30.929,30.929,0,0,0,1731.822,1044Z" transform="translate(-1730.633 -1004.4)" fill="url(#a)"/></g><g transform="translate(0 0.001)"><g clip-path="url(#b)"><g transform="translate(31.933 1.93)"><path d="M1903.147,1062.371l-.173-1.071c-18.11,2.923-23.208-6.043-23.258-6.133l-.034-.053c-4.765-6.8-3.006-17.675-.691-25.6a96.054,96.054,0,0,1,6.29-15.841l-.961-.507a97.426,97.426,0,0,0-6.372,16.044,53.9,53.9,0,0,0-2.377,13.95c-.088,5.161.99,9.385,3.206,12.557a13.153,13.153,0,0,0,5.1,4.525C1887.253,1062.085,1893.336,1063.954,1903.147,1062.371Z" transform="translate(-1875.567 -1013.162)" fill="url(#c)"/></g><g transform="translate(13.957 2.295)"><path d="M1822.568,1076.818l.572-.923c-13.762-8.534-20.66-24.661-24.025-36.686a115.075,115.075,0,0,1-4.048-24.39l-1.087.034a116.394,116.394,0,0,0,4.083,24.625,84,84,0,0,0,8.532,20.5A48.943,48.943,0,0,0,1822.568,1076.818Z" transform="translate(-1793.98 -1014.819)" fill="url(#d)"/></g><g transform="translate(-2.883 26.092)"><path d="M1740.1,1163.958a13.629,13.629,0,0,0,1.974-4.7c.649-2.818.88-7.383-1.706-13.123-4.889-10.851-21.481-22.81-22.184-23.313l-.633.884c.17.121,17.059,12.293,21.827,22.876,2.448,5.434,2.248,9.728,1.651,12.374a12.274,12.274,0,0,1-1.9,4.491l.852.672C1739.986,1164.111,1740.03,1164.056,1740.1,1163.958Z" transform="translate(-1717.55 -1122.826)" fill="url(#e)"/></g><g transform="translate(3.564 9.128)"><path d="M1802.336,1063.278a25.974,25.974,0,0,0,4.562-10.067c.858-4.56-.367-7.267-.42-7.38l-.984.459a12.166,12.166,0,0,1,.319,6.816c-.766,3.949-3.422,10.213-11.724,17.632-8.385,7.49-20.788,11.8-29.716,14.1a123.957,123.957,0,0,1-17.566,3.221l.1,1.082a125.168,125.168,0,0,0,17.737-3.251c9.046-2.327,21.623-6.7,30.17-14.338A49.3,49.3,0,0,0,1802.336,1063.278Z" transform="translate(-1746.807 -1045.831)" fill="url(#f)"/></g></g></g><g transform="translate(0 9.051)" opacity="0.16" style="mix-blend-mode:multiply;isolation:isolate"><path d="M1731.822,1076.026a31.077,31.077,0,0,0,42.777,19.826c-9.71-5.045-14.185-10.868-16.283-16.134-3.912-9.822.328-18.008-5.463-26.017-3.028-4.188-7.661-6.753-13.038-8.223a30.924,30.924,0,0,0-6.724,9.959c-.275.658-.533,1.333-.769,2.018A30.923,30.923,0,0,0,1731.822,1076.026Z" transform="translate(-1730.633 -1045.478)" fill="url(#g)"/></g></g></svg>