<svg width="100" height="74" viewBox="0 0 100 74" fill="none" xmlns="http://www.w3.org/2000/svg">
<path fill-rule="evenodd" clip-rule="evenodd" d="M17.5776 57.4352V33.6567L45.5091 45.1543C46.946 45.7385 48.4724 45.7291 49.907 45.1437L78.5451 33.3587V57.4352C78.5404 57.8145 78.465 58.2008 78.306 58.5718C78.2919 58.6083 72.8234 71.6147 48.337 73.5015C48.1768 73.5168 48.0107 73.5192 47.8447 73.5062C25.5784 71.8102 19.0087 60.925 17.9722 58.898C17.7213 58.467 17.5776 57.9676 17.5776 57.4352ZM1.7928 18.6562L46.6009 0.217826C47.3359 -0.08369 48.1226 -0.0613119 48.8046 0.217826L93.6115 18.6562C95.4159 19.3982 95.973 21.6726 94.7646 23.166V50.9326L99.5594 58.6083C100.77 60.5552 99.3344 63.0533 97.0931 63.0462L86.6166 63.0533C84.2303 63.0533 82.8983 60.3526 84.2445 58.4575L88.9439 50.9349V25.9433L48.8046 42.4607C48.0696 42.7622 47.2829 42.7398 46.6009 42.4607L1.7928 24.0235C-0.622857 23.0318 -0.572212 19.6279 1.7928 18.6562Z" fill="black"/>
</svg>
