<svg xmlns="http://www.w3.org/2000/svg" width="66.766" height="75.461" viewBox="0 0 66.766 75.461"><g transform="translate(-0.501 0)"><path d="M231.674,200.69a1.475,1.475,0,0,0-1.476-1.475H217.222a1.475,1.475,0,0,0,0,2.95H230.2A1.475,1.475,0,0,0,231.674,200.69Zm0,0" transform="translate(-183.522 -169.854)" fill="#0d3eac"/><path d="M73.767,99.125H71.033a3.056,3.056,0,0,0-3.055,3.05v1.42H66.556A3.059,3.059,0,0,0,63.5,106.65v2.736a3.059,3.059,0,0,0,3.056,3.054h1.422v1.42a3.058,3.058,0,0,0,3.055,3.055h2.734a3.059,3.059,0,0,0,3.056-3.055v-1.42h1.422a3.058,3.058,0,0,0,3.055-3.054V106.65a3.059,3.059,0,0,0-3.055-3.055H76.823v-1.42A3.057,3.057,0,0,0,73.767,99.125Zm4.477,7.42a.109.109,0,0,1,.105.1v2.736a.109.109,0,0,1-.105.1h-2.9a1.475,1.475,0,0,0-1.475,1.476v2.895a.109.109,0,0,1-.105.1H71.033a.109.109,0,0,1-.1-.1v-2.895a1.476,1.476,0,0,0-1.476-1.476h-2.9a.109.109,0,0,1-.105-.1V106.65a.109.109,0,0,1,.105-.1h2.9a1.475,1.475,0,0,0,1.476-1.475v-2.9a.108.108,0,0,1,.1-.1h2.734a.108.108,0,0,1,.105.1v2.9a1.475,1.475,0,0,0,1.475,1.475Zm0,0" transform="translate(-53.714 -84.515)" fill="#0d3eac"/><path d="M232.317,140.963a1.475,1.475,0,0,0-1.475-1.475H217.221a1.475,1.475,0,0,0,0,2.951h13.621A1.475,1.475,0,0,0,232.317,140.963Zm0,0" transform="translate(-183.522 -118.93)" fill="#0d3eac"/><path d="M71.7,261.861h33.776a1.475,1.475,0,0,0,0-2.951H71.7a1.475,1.475,0,1,0,0,2.951Zm0,0" transform="translate(-59.446 -220.751)" fill="#0d3eac"/><path d="M66.013,46.607a37.687,37.687,0,0,1-8.467-2.134V31.647a1.475,1.475,0,1,0-2.951,0v11.2a7.292,7.292,0,0,1-.877-.781,1.475,1.475,0,0,0-2.143,0c-1.955,2.066-6.093,3.594-12.3,4.54a1.467,1.467,0,0,0-.75.351H12.252a1.475,1.475,0,1,0,0,2.95h25.77v5.848H11.261a1.475,1.475,0,1,0,0,2.95H38.141a18.553,18.553,0,0,0,5.127,10.281H7.657a4.207,4.207,0,0,1-4.206-4.2V10.407a4.207,4.207,0,0,1,4.206-4.2H14.7v.547a2.713,2.713,0,0,0,2.713,2.708H40.635a2.713,2.713,0,0,0,2.713-2.708V6.209h7.041a4.207,4.207,0,0,1,4.207,4.2v9.471a1.475,1.475,0,1,0,2.95,0V10.407a7.161,7.161,0,0,0-7.157-7.149H43.348V2.708A2.713,2.713,0,0,0,40.635,0H17.411A2.713,2.713,0,0,0,14.7,2.708v.551H7.657A7.161,7.161,0,0,0,.5,10.407V64.788a7.161,7.161,0,0,0,7.157,7.149H46.438c2.656,2.279,4.3,3.522,6.2,3.524h.006c2.141,0,3.944-1.56,7.216-4.389,4.622-4,7.114-8.565,7.405-13.563,0-.028,0-.057,0-.086V48.065a1.476,1.476,0,0,0-1.253-1.458ZM17.649,2.951H40.4V6.513H17.649ZM64.316,57.379c-.256,4.157-2.405,8.013-6.389,11.461-2.554,2.21-4.242,3.67-5.285,3.67h0c-1.035,0-2.631-1.382-5.275-3.67-3.983-3.449-6.134-7.3-6.393-11.462V49.32c5.395-.929,9.24-2.328,11.673-4.25a14.426,14.426,0,0,0,2.692,1.647,1.45,1.45,0,0,0,.21.1,35.119,35.119,0,0,0,8.768,2.5Zm0,0" fill="#0d3eac"/><path d="M313.239,363.134l-2.595-2.434a1.475,1.475,0,0,0-2.019,2.152l3.688,3.459a1.474,1.474,0,0,0,1.009.4h.059a1.475,1.475,0,0,0,1.033-.481l7.479-8.222a1.475,1.475,0,1,0-2.183-1.986Zm0,0" transform="translate(-262.315 -303.137)" fill="#0d3eac"/><path d="M369.006,164.6a1.475,1.475,0,0,0-1.475,1.476v.025a1.475,1.475,0,0,0,2.951,0v-.025A1.476,1.476,0,0,0,369.006,164.6Zm0,0" transform="translate(-312.936 -140.342)" fill="#0d3eac"/></g></svg>