<?xml version="1.0" encoding="utf-8"?>
<svg width="415px" height="122px" viewBox="0 0 415 122" version="1.1" xmlnsXlink="http://www.w3.org/1999/xlink" xmlns="http://www.w3.org/2000/svg">
  <defs>
    <linearGradient x1="0.045318965" y1="-0.26870605" x2="0.9610209" y2="1.1826488" id="gradient_1">
      <stop offset="0" stop-color="#00F0FF" />
      <stop offset="1" stop-color="#016CFF" />
    </linearGradient>
  </defs>
  <g id="Primary-Combination-Mark.Primary-Combination-Mark.-Copy">
    <path d="M132.574 0L413.822 0C414.555 0 415.105 0.671729 414.983 1.34346L397.504 109.248C397.382 109.797 396.893 110.225 396.343 110.225L115.034 110.225C114.301 110.225 113.751 109.553 113.873 108.82L115.401 99.9044C115.523 99.3548 116.012 98.9273 116.562 98.9273L384.792 98.9273C385.343 98.9273 385.831 98.4999 385.954 97.9503L400.682 12.8239C400.804 12.0911 400.254 11.4194 399.521 11.4194L131.168 11.4194C130.435 11.4194 129.885 10.7477 130.007 10.0759L131.413 1.03813C131.474 0.427464 131.963 0 132.574 0ZM142.23 27.9683L128.357 27.9683C127.807 27.9683 127.257 28.3958 127.196 28.9454L119.19 79.4472C119.068 80.18 119.618 80.7907 120.351 80.7907L134.224 80.7907C134.774 80.7907 135.324 80.3632 135.385 79.8136L143.452 29.3118C143.513 28.579 142.963 27.9683 142.23 27.9683ZM186.293 79.8136L194.36 29.3118C194.483 28.579 193.933 27.9683 193.199 27.9683L182.382 27.9683C181.832 27.9683 181.282 28.3958 181.221 28.9454L178.899 43.5402C178.471 46.105 178.226 48.6087 178.043 51.0514C177.982 52.2727 176.271 52.578 175.782 51.4178C175.232 50.0743 174.621 48.7309 173.948 47.2653L165.026 28.579C164.842 28.1515 164.414 27.9073 163.987 27.9073L150.358 27.9073C149.808 27.9073 149.258 28.3347 149.197 28.8843L141.13 79.3861C141.008 80.1189 141.558 80.7296 142.291 80.7296L153.108 80.7296C153.658 80.7296 154.208 80.3021 154.269 79.7525L158.181 55.1428C158.242 54.7764 158.303 54.349 158.364 53.9215C158.486 52.7002 160.198 52.517 160.625 53.6772C161.114 55.0207 161.664 56.242 162.153 57.4023L172.665 80.0579C172.848 80.4853 173.276 80.7296 173.704 80.7296L185.132 80.7296C185.682 80.7907 186.171 80.3632 186.293 79.8136ZM228.157 59.9671L229.684 50.4407C229.807 49.7079 229.257 49.0973 228.523 49.0973L214.039 49.0973C213.306 49.0973 212.756 48.4255 212.878 47.7538L213.856 41.5251C213.917 40.9755 214.467 40.548 215.017 40.548L235.49 40.548C236.04 40.548 236.59 40.1205 236.652 39.5709L238.302 29.3729C238.424 28.6401 237.874 28.0294 237.14 28.0294L201.266 28.0294C200.716 28.0294 200.166 28.4569 200.105 29.0065L192.038 79.5083C191.916 80.2411 192.466 80.8517 193.199 80.8517L206.583 80.8517C207.133 80.8517 207.683 80.4243 207.744 79.8747L210.617 62.0433C210.678 61.4937 211.228 61.0663 211.778 61.0663L227.057 61.0663C227.545 61.0052 228.096 60.5777 228.157 59.9671ZM273.014 67.8446L254.864 67.8446C254.13 67.8446 253.58 67.1729 253.702 66.5012L259.63 29.3118C259.753 28.579 259.203 27.9683 258.469 27.9683L244.657 27.9683C244.107 27.9683 243.557 28.3958 243.496 28.9454L235.429 79.4472C235.307 80.18 235.857 80.7907 236.59 80.7907L271.303 80.7907C271.853 80.7907 272.403 80.3632 272.464 79.8136L274.176 69.1881C274.298 68.5163 273.748 67.8446 273.014 67.8446ZM309.5 61.5548C307.972 66.8065 305.222 69.4323 301.127 69.4323C298.744 69.4323 297.032 68.3942 295.993 66.318C294.955 64.2417 294.955 60.3335 295.871 54.5932C297.521 44.3341 300.883 39.2045 306.016 39.2045C307.85 39.2045 309.316 39.9984 310.416 41.5251C311.394 42.9296 311.7 45.0058 311.394 47.8759C311.333 48.6087 311.883 49.2194 312.617 49.1583L325.451 48.4866C326.062 48.4255 326.551 47.937 326.551 47.3874C326.856 41.464 325.512 36.7008 322.578 33.0368C319.461 29.1897 314.328 27.2356 307.361 27.2356C299.844 27.2356 293.549 29.8003 288.599 34.8688C283.587 39.9984 280.409 46.6546 279.065 54.9596C277.72 63.3257 278.943 69.8598 282.609 74.5619C286.215 79.3251 291.654 81.7067 298.866 81.7067C304.855 81.7067 310.111 79.9968 314.756 76.516C319.095 73.2795 322.15 68.7606 323.923 63.0204C324.167 62.2876 323.617 61.5548 322.884 61.4937L310.6 60.7609C310.172 60.6388 309.683 61.0052 309.5 61.5548ZM374.098 79.3251L368.781 58.6847C368.658 58.1351 368.903 57.5855 369.392 57.3412C372.997 55.6314 375.564 53.6772 377.031 51.5399C378.62 49.2194 379.72 46.5325 380.209 43.4792C380.942 38.7771 379.842 35.052 376.909 32.1819C373.975 29.3118 369.453 27.9073 363.341 27.9073L336.757 27.9073C336.207 27.9073 335.657 28.3347 335.595 28.8843L327.59 79.4472C327.467 80.18 328.017 80.7907 328.751 80.7907L342.624 80.7907C343.174 80.7907 343.724 80.3632 343.785 79.8136L346.718 61.5548C346.779 61.0052 347.329 60.5777 347.879 60.5777L351.057 60.5777C351.607 60.5777 352.096 60.9441 352.219 61.4937L356.313 79.8747C356.435 80.4243 356.924 80.7907 357.474 80.7907L373.059 80.7907C373.731 80.7907 374.281 80.0579 374.098 79.3251ZM350.08 40.1816C350.141 39.632 350.691 39.2045 351.241 39.2045L357.658 39.2045C361.814 39.2045 363.647 40.9144 363.097 44.273C362.852 45.9218 362.058 47.2042 360.652 47.9981C359.308 48.853 357.536 49.2805 355.519 49.2805L349.957 49.2805C349.224 49.2805 348.674 48.6087 348.796 47.937L350.08 40.1816ZM54.8977 60.2724L62.4758 60.2724C63.0259 60.2724 63.5759 59.8449 63.637 59.2953L64.9204 51.2346C65.0426 50.5018 64.4926 49.8911 63.7592 49.8911L56.1811 49.8911C55.631 49.8911 55.081 50.3186 55.0199 50.8682L53.7365 58.9289C53.6143 59.6617 54.1643 60.2724 54.8977 60.2724ZM18.6569 0L118.64 0C119.373 0 119.923 0.671729 119.801 1.34346L102.383 109.248C102.261 109.797 101.772 110.225 101.222 110.225L58.5645 110.225C58.3812 110.225 58.1367 110.286 57.9534 110.408L38.3968 121.827C37.6023 122.316 36.6245 121.705 36.6245 120.789L36.6245 111.385C36.6245 110.713 36.0745 110.225 35.4633 110.225L1.17823 110.225C0.444854 110.225 -0.105174 109.553 0.0170544 108.881L17.4957 0.97706C17.5569 0.427464 18.0458 0 18.6569 0ZM85.8215 48.9141L87.166 40.3037C87.2882 39.5709 86.7382 38.9603 86.0048 38.9603L81.1768 38.9603C80.4434 38.9603 79.8934 38.2885 80.0156 37.6168L81.0546 30.9606C81.1768 30.2278 80.6268 29.6171 79.8934 29.6171L69.3206 29.6171C68.7706 29.6171 68.2206 30.0446 68.1595 30.5942L66.9983 37.9832C66.9372 38.5328 66.3871 38.9603 65.8371 38.9603L58.3201 38.9603C57.5867 38.9603 57.0367 38.2885 57.1589 37.6168L58.1978 30.9606C58.3201 30.2278 57.77 29.6171 57.0367 29.6171L46.4639 29.6171C45.9139 29.6171 45.3638 30.0446 45.3027 30.5942L44.1416 37.9832C44.0804 38.5328 43.5304 38.9603 42.9804 38.9603L37.4801 38.9603C36.9301 38.9603 36.38 39.3877 36.3189 39.9373L34.9744 48.5477C34.8522 49.2805 35.4022 49.8911 36.1356 49.8911L40.9025 49.8911C41.6359 49.8911 42.1859 50.5629 42.0637 51.2346L40.7803 59.2953C40.7192 59.8449 40.1691 60.2724 39.6191 60.2724L34.1188 60.2724C33.5688 60.2724 33.0188 60.6999 32.9576 61.2495L31.6131 69.7987C31.4909 70.5315 32.0409 71.1422 32.7743 71.1422L37.5412 71.1422C38.2746 71.1422 38.8246 71.8139 38.7024 72.4856L37.6023 79.2029C37.4801 79.9357 38.0301 80.5464 38.7635 80.5464L49.3363 80.5464C49.8863 80.5464 50.4363 80.1189 50.4974 79.5693L51.6586 72.0582C51.7197 71.5086 52.2698 71.0811 52.8198 71.0811L60.3979 71.0811C61.1313 71.0811 61.6814 71.7529 61.5591 72.4246L60.4591 79.1419C60.3368 79.8747 60.8869 80.4853 61.6202 80.4853L72.193 80.4853C72.743 80.4853 73.2931 80.0579 73.3542 79.5083L74.5154 71.9971C74.5765 71.4475 75.1265 71.0201 75.6765 71.0201L81.2379 71.0201C81.7879 71.0201 82.338 70.5926 82.3991 70.043L83.7436 61.4937C83.8658 60.7609 83.3158 60.1503 82.5824 60.1503L77.7544 60.1503C77.021 60.1503 76.471 59.4785 76.5932 58.8068L77.8766 50.7461C77.9377 50.1965 78.4878 49.769 79.0378 49.769L84.5992 49.769C85.2715 49.8911 85.7604 49.4637 85.8215 48.9141Z" id="Shape" fill="url(#gradient_1)" stroke="none" />
  </g>
</svg>