   <svg xmlns="http://www.w3.org/2000/svg" width="20.065" height="20.069"
                viewBox="0 0 20.065 20.069">
                <path
                  d="M20.463,5.9A7.333,7.333,0,0,0,20,3.466,5.141,5.141,0,0,0,17.06.529,7.352,7.352,0,0,0,14.625.063C13.551.012,13.21,0,10.485,0S7.419.012,6.349.059A7.335,7.335,0,0,0,3.914.525a4.9,4.9,0,0,0-1.78,1.161A4.941,4.941,0,0,0,.978,3.462,7.353,7.353,0,0,0,.511,5.9C.46,6.971.449,7.312.449,10.037S.46,13.1.507,14.173a7.333,7.333,0,0,0,.467,2.435A5.14,5.14,0,0,0,3.91,19.544a7.353,7.353,0,0,0,2.435.466c1.07.047,1.411.059,4.136.059s3.066-.012,4.136-.059a7.331,7.331,0,0,0,2.435-.466,5.133,5.133,0,0,0,2.937-2.936,7.358,7.358,0,0,0,.466-2.435c.047-1.07.059-1.411.059-4.136s0-3.066-.051-4.136Zm-1.807,8.194a5.5,5.5,0,0,1-.345,1.862,3.329,3.329,0,0,1-1.905,1.905,5.52,5.52,0,0,1-1.862.345c-1.059.047-1.376.059-4.054.059s-3-.012-4.054-.059a5.5,5.5,0,0,1-1.862-.345,3.088,3.088,0,0,1-1.153-.749,3.12,3.12,0,0,1-.749-1.153A5.521,5.521,0,0,1,2.327,14.1c-.047-1.059-.059-1.376-.059-4.054s.012-3,.059-4.054a5.5,5.5,0,0,1,.345-1.862,3.05,3.05,0,0,1,.753-1.153,3.115,3.115,0,0,1,1.153-.749,5.524,5.524,0,0,1,1.862-.345c1.059-.047,1.376-.059,4.054-.059s3,.012,4.054.059a5.5,5.5,0,0,1,1.862.345,3.086,3.086,0,0,1,1.153.749,3.12,3.12,0,0,1,.749,1.153,5.523,5.523,0,0,1,.345,1.862c.047,1.059.059,1.376.059,4.054s-.012,2.991-.059,4.05Zm0,0"
                  transform="translate(-0.449 0)" />
                <path
                  d="M130.262,124.5a5.313,5.313,0,1,0,5.313,5.313A5.315,5.315,0,0,0,130.262,124.5Zm0,8.76a3.447,3.447,0,1,1,3.447-3.447A3.447,3.447,0,0,1,130.262,133.26Zm0,0"
                  transform="translate(-120.226 -119.777)" />
                <path
                  d="M364.779,89.766a1.165,1.165,0,1,1-1.165-1.165A1.165,1.165,0,0,1,364.779,89.766Zm0,0"
                  transform="translate(-348.195 -85.113)" />
              </svg>
