<svg width="90" height="90" viewBox="0 0 90 90" fill="none" xmlns="http://www.w3.org/2000/svg">
<path d="M45 0C20.188 0 0 20.188 0 44.997C0 69.812 20.188 90 45 90C69.812 90 90 69.812 90 44.997C90 20.188 69.812 0 45 0ZM45 83.932C23.532 83.932 6.068 66.464 6.068 44.997C6.068 23.53 23.532 6.068 45 6.068C66.468 6.068 83.932 23.53 83.932 44.997C83.932 66.464 66.468 83.932 45 83.932Z" fill="black"/>
<path d="M46.075 42.585C38.985 41.193 35.646 40.144 35.646 36.594C35.646 34.028 36.757 32.245 39.041 31.137C43.011 29.217 49.6 29.964 53.14 32.749C54.461 33.792 56.366 33.561 57.4 32.239C58.437 30.924 58.209 29.016 56.89 27.985C54.466 26.079 51.313 24.865 48.032 24.327V18.937C48.032 17.26 46.675 15.903 44.998 15.903C43.321 15.903 41.964 17.26 41.964 18.937V24.152C39.978 24.379 38.07 24.865 36.391 25.68C31.997 27.813 29.577 31.688 29.577 36.594C29.577 45.523 38.435 47.266 44.9 48.539C51.877 49.908 54.354 50.85 54.354 53.398C54.354 55.893 53.302 57.652 51.14 58.766C47.33 60.745 40.957 60.158 37.212 57.504C35.843 56.544 33.95 56.858 32.984 58.227C32.015 59.596 32.335 61.486 33.704 62.458C36.03 64.107 38.945 65.167 41.964 65.657V72.911C41.964 74.588 43.321 75.945 44.998 75.945C46.675 75.945 48.032 74.588 48.032 72.911V65.738C50.148 65.5 52.194 65.055 53.928 64.159C58.114 61.996 60.422 58.174 60.422 53.399C60.424 45.406 52.469 43.842 46.075 42.585Z" fill="black"/>
</svg>
