<svg xmlns="http://www.w3.org/2000/svg" width="55.031" height="55.032" viewBox="0 0 55.031 55.032"><g transform="translate(-0.002)"><path d="M115.033,125.2H130.85a.807.807,0,0,0,0-1.612H115.033A.807.807,0,0,0,115.033,125.2Z" transform="translate(-101.969 -110.306)" fill="#0d3eac"/><path d="M115.033,180.227H127.2a.807.807,0,0,0,0-1.612H115.033A.807.807,0,0,0,115.033,180.227Z" transform="translate(-101.969 -159.417)" fill="#0d3eac"/><path d="M115.033,235.252h10.443a.807.807,0,0,0,0-1.612H115.033A.807.807,0,0,0,115.033,235.252Z" transform="translate(-101.969 -208.528)" fill="#0d3eac"/><path d="M130.22,329.978h-.534V322.1a.806.806,0,0,0-.806-.806h-3.235v-2.842a.806.806,0,0,0-.806-.806h-4.031a.806.806,0,0,0-.806.806v4.905h-3.229a.806.806,0,0,0-.806.806v5.815h-.534a.806.806,0,1,0,0,1.612H130.22a.806.806,0,0,0,0-1.612Zm-12.641,0V324.97H120v5.009Zm4.035,0v-10.72h2.419v10.72Zm4.041,0v-7.072h2.419v7.072Z" transform="translate(-102.304 -283.504)" fill="#0d3eac"/><path d="M55.027,25.108a13.308,13.308,0,0,0-7.765-11.683c-.024-.014-.048-.026-.073-.038a.791.791,0,0,0-.078-.03,13.347,13.347,0,0,0-5.727-1.126V7.79a1.874,1.874,0,0,0-1.872-1.872H38.348V4.911a1.874,1.874,0,0,0-1.872-1.872H35.31V1.872A1.874,1.874,0,0,0,33.438,0H1.874A1.874,1.874,0,0,0,0,1.872V47.241a1.874,1.874,0,0,0,1.872,1.872H3.04V50.28a1.874,1.874,0,0,0,1.869,1.872l1.166,0v1a1.874,1.874,0,0,0,1.872,1.872H33.128A.814.814,0,0,0,33.7,54.8l7.449-7.414a.806.806,0,0,0,.237-.571V38.82c.109,0,.217.005.326.005a13.375,13.375,0,0,0,6.514-1.69.807.807,0,0,0-.788-1.407,11.727,11.727,0,0,1-13.38-1.392l7.916-7.916,10.823,2.868a11.576,11.576,0,0,1-2.266,3.929A.807.807,0,0,0,51.74,34.28a13.246,13.246,0,0,0,3.287-9.172Zm-9.249-10.55-4.724,10.5L32.913,33.2a11.688,11.688,0,0,1,12.865-18.64ZM4.912,50.54a.26.26,0,0,1-.26-.26V4.911a.26.26,0,0,1,.26-.26h5.623a.807.807,0,0,0,0-1.612H4.912A1.874,1.874,0,0,0,3.04,4.911V47.5H1.874a.26.26,0,0,1-.26-.26V1.872a.26.26,0,0,1,.26-.26H33.438a.26.26,0,0,1,.26.26V3.039H15.05a.807.807,0,0,0,0,1.612H36.476a.26.26,0,0,1,.26.26V5.918H7.947A1.874,1.874,0,0,0,6.075,7.79V50.545Zm2.775,2.619V7.79a.26.26,0,0,1,.26-.26H39.511a.26.26,0,0,1,.26.26v4.581a13.3,13.3,0,0,0,0,26.309v7.256H34.194a1.874,1.874,0,0,0-1.872,1.872v5.61H7.947a.26.26,0,0,1-.26-.26Zm26.247-.886V47.809a.26.26,0,0,1,.26-.26h4.443Zm8.92-27.286,4.395-9.769A11.683,11.683,0,0,1,53.2,27.729Z" fill="#0d3eac"/></g></svg>