<svg width="177" height="32" viewBox="0 0 177 32" fill="none" xmlns="http://www.w3.org/2000/svg">
<path d="M15.959 0L19.542 11.0274L31.1369 11.0274L21.7565 17.8427L25.3395 28.8701L15.959 22.0548L6.57854 28.8701L10.1616 17.8427L0.78109 11.0274L12.376 11.0274L15.959 0Z" fill="white"/>
<path d="M52.2295 0L55.8125 11.0274L67.4074 11.0274L58.027 17.8427L61.61 28.8701L52.2295 22.0548L42.849 28.8701L46.4321 17.8427L37.0516 11.0274L48.6465 11.0274L52.2295 0Z" fill="white"/>
<path d="M88.5 0L92.083 11.0274L103.678 11.0274L94.2975 17.8427L97.8805 28.8701L88.5 22.0548L79.1195 28.8701L82.7025 17.8427L73.3221 11.0274L84.917 11.0274L88.5 0Z" fill="white"/>
<path d="M124.77 0L128.354 11.0274L139.948 11.0274L130.568 17.8427L134.151 28.8701L124.77 22.0548L115.39 28.8701L118.973 17.8427L109.593 11.0274L121.187 11.0274L124.77 0Z" fill="white"/>
<path d="M161.041 0L164.624 11.0274L176.219 11.0274L166.838 17.8427L170.421 28.8701L161.041 22.0548L151.661 28.8701L155.244 17.8427L145.863 11.0274L157.458 11.0274L161.041 0Z" fill="white"/>
</svg>
