<svg xmlns="http://www.w3.org/2000/svg" width="67.301" height="69.357" viewBox="0 0 67.301 69.357"><g transform="translate(-1.293 -2)"><path d="M20,6h2.293V8.293H20Z" transform="translate(2.739 0.586)" fill="#0d3eac"/><path d="M24,6h9.171V8.293H24Z" transform="translate(3.324 0.586)" fill="#0d3eac"/><path d="M31.025,42H26.439a3.439,3.439,0,0,0,0,6.878h4.586a3.439,3.439,0,0,0,0-6.878Zm0,4.586H26.439a1.146,1.146,0,0,1,0-2.293h4.586a1.146,1.146,0,0,1,0,2.293Z" transform="translate(3.178 5.856)" fill="#0d3eac"/><path d="M4.4,30.2H6.689V16.914L8.171,18.4l1.621-1.621L6.353,13.336a1.146,1.146,0,0,0-1.621,0L1.293,16.775,2.914,18.4,4.4,16.914Z" transform="translate(0 1.61)" fill="#0d3eac"/><path d="M50.4,16.914V30.2h2.293V16.914L54.171,18.4l1.621-1.621-3.439-3.439a1.146,1.146,0,0,0-1.621,0l-3.439,3.439L48.914,18.4Z" transform="translate(6.734 1.61)" fill="#0d3eac"/><path d="M63.612,52.441a4.517,4.517,0,0,0-2.946,1.078,4.6,4.6,0,0,0-3.932-2.224,4.517,4.517,0,0,0-2.946,1.078A4.568,4.568,0,0,0,51,50.3V10.025A8.034,8.034,0,0,0,42.977,2H20.049a8.034,8.034,0,0,0-8.025,8.025V31a3.469,3.469,0,0,0-1.662,1.651l-5.2,11.292A12.708,12.708,0,0,0,4,49.22V70.784H6.293V49.22a10.361,10.361,0,0,1,.952-4.31l4.78-10.375v16.76a7.935,7.935,0,0,0,.493,2.74L11.383,56l1.983,1.146L20.244,45.23a2.293,2.293,0,0,1,1.387-1.078,2.362,2.362,0,0,1,1.743.229,2.3,2.3,0,0,1,.837,3.141l-5.159,8.93a1.182,1.182,0,0,0,.011,1.169L21.517,61.7a5.717,5.717,0,0,1,.825,2.946v6.122h2.293V64.65a8.055,8.055,0,0,0-1.146-4.127l-.722-1.2H29.84A4.623,4.623,0,0,0,30.3,62.8l4.941,8.552,1.983-1.146-4.941-8.552a2.293,2.293,0,0,1,2.579-3.37,2.226,2.226,0,0,1,1.387,1.078l2.293,3.967a1.172,1.172,0,0,0,1.3.539,1.146,1.146,0,0,0,.848-1.112V40.977a2.293,2.293,0,0,1,4.586,0V59.32a1.146,1.146,0,0,0,2.293,0V54.734a2.293,2.293,0,0,1,4.586,0V59.32a1.146,1.146,0,1,0,2.293,0V55.88a2.293,2.293,0,0,1,4.586,0V59.32a1.146,1.146,0,0,0,2.293,0V57.027a2.293,2.293,0,1,1,4.586,0V70.784H68.2V57.027a4.586,4.586,0,0,0-4.586-4.586ZM48.709,50.3a4.556,4.556,0,0,0-1.146.47v-9.79a4.586,4.586,0,1,0-9.171,0v16.05H37.234a4.682,4.682,0,0,0-1.777-.952,4.629,4.629,0,0,0-3.485.459,4.868,4.868,0,0,0-.676.493h-9.9l-.011-.011,4.826-8.346a4.586,4.586,0,0,0-7.945-4.586l-3.944,6.821V10.025A5.732,5.732,0,0,1,20.05,4.293H42.977a5.732,5.732,0,0,1,5.732,5.732Z" transform="translate(0.396 0)" fill="#0d3eac"/><path d="M27.439,21.439h2.293a1.146,1.146,0,0,1,1.146,1.146h2.293a3.439,3.439,0,0,0-3.439-3.439V18H27.439v1.146a3.439,3.439,0,1,0,0,6.878h2.293a1.146,1.146,0,1,1,0,2.293H27.439a1.146,1.146,0,0,1-1.146-1.146H24a3.439,3.439,0,0,0,3.439,3.439v1.146h2.293V30.61a3.439,3.439,0,0,0,0-6.878H27.439a1.146,1.146,0,1,1,0-2.293Z" transform="translate(3.324 2.342)" fill="#0d3eac"/><path d="M29.464,14A11.464,11.464,0,1,0,40.928,25.464,11.464,11.464,0,0,0,29.464,14Zm0,20.635a9.171,9.171,0,1,1,9.171-9.171A9.171,9.171,0,0,1,29.464,34.635Z" transform="translate(2.446 1.757)" fill="#0d3eac"/><path d="M50,30h2.293v2.293H50Z" transform="translate(7.13 4.099)" fill="#0d3eac"/><path d="M50,34h2.293v2.293H50Z" transform="translate(7.13 4.685)" fill="#0d3eac"/><path d="M4,30H6.293v2.293H4Z" transform="translate(0.396 4.099)" fill="#0d3eac"/></g></svg>