<svg xmlns="http://www.w3.org/2000/svg" width="62.734" height="72.041" viewBox="0 0 62.734 72.041"><g transform="translate(-36.355 -2.927)"><g transform="translate(36.73 3.302)"><path d="M475.244,501.35a.9.9,0,0,1,0,.151q0-.049,0-.1Z" transform="translate(-413.385 -431.096)" fill="#0d3eac" stroke="#0d3eac" stroke-width="0.75"/><path d="M451.134,489.883v.054q0,.049,0,.1a.993.993,0,0,1-.281.6c-.021.021-.042.041-.065.061l-.008.007c-.025.02-.051.038-.078.056s-.047.03-.072.044a.6.6,0,0,1-.106.049.32.32,0,0,1-.062.023.236.236,0,0,1-.038.013c-.02.006-.041.011-.063.016a.661.661,0,0,1-.089.014l-.038,0-.075,0a.949.949,0,0,1-.577-.192l-2.408-1.77h2.006V488l1.562,1.148A.99.99,0,0,1,451.134,489.883Z" transform="translate(-389.274 -419.629)" fill="#0d3eac" stroke="#0d3eac" stroke-width="0.75"/><path d="M463.286,216.449l.01,40.111a.99.99,0,0,0-.4-.735l-1.562-1.148-.008-36,1.641-1.511a.456.456,0,0,0,.037-.038.49.49,0,0,0,.058-.065.232.232,0,0,0,.017-.023.38.38,0,0,0,.042-.059.037.037,0,0,0,.008-.014.667.667,0,0,0,.041-.068c.011-.023.023-.047.032-.069a1.053,1.053,0,0,0,.059-.19.987.987,0,0,0,.02-.193c0-.031,0-.061,0-.092A.629.629,0,0,1,463.286,216.449Z" transform="translate(-401.437 -186.306)" fill="#0d3eac" stroke="#0d3eac" stroke-width="0.75"/><path d="M463.281,210.949c0,.031,0,.061,0,.092a.987.987,0,0,1-.02.193q-.011.049-.025.1c-.01.031-.021.063-.034.093s-.021.047-.032.069a.436.436,0,0,1-.041.068.037.037,0,0,1-.008.014.387.387,0,0,1-.042.059.236.236,0,0,1-.017.023.826.826,0,0,1-.058.065.958.958,0,0,1-.7.3.977.977,0,0,1-.686-.279l-.293-.286v-.418a.972.972,0,0,1,.34-.741.121.121,0,0,1,.025-.023.713.713,0,0,1,.066-.048.471.471,0,0,1,.072-.044.036.036,0,0,1,.017-.01.7.7,0,0,1,.073-.035,0,0,0,0,1,.006,0,.436.436,0,0,1,.055-.021.417.417,0,0,1,.055-.018.768.768,0,0,1,.082-.02.921.921,0,0,1,.093-.013.977.977,0,0,1,.8.3.287.287,0,0,1,.028.031.322.322,0,0,1,.03.035.233.233,0,0,1,.032.044.251.251,0,0,1,.024.034.347.347,0,0,1,.03.048.17.17,0,0,1,.02.039.572.572,0,0,1,.035.073.721.721,0,0,1,.031.089.735.735,0,0,1,.024.093.561.561,0,0,1,.01.068l0,.027Z" transform="translate(-401.437 -180.895)" fill="#0d3eac" stroke="#0d3eac" stroke-width="0.75"/><path d="M475.08,215.74a.556.556,0,0,1,.011.083l0-.027C475.086,215.777,475.083,215.758,475.08,215.74Z" transform="translate(-413.247 -185.774)" fill="#0d3eac" stroke="#0d3eac" stroke-width="0.75"/><path d="M475.05,217.2a.992.992,0,0,0,.02-.193A.992.992,0,0,1,475.05,217.2Z" transform="translate(-413.221 -186.865)" fill="#0d3eac" stroke="#0d3eac" stroke-width="0.75"/><path d="M475.07,215.728a.562.562,0,0,0-.01-.068s0,.007,0,.011S475.068,215.708,475.07,215.728Z" transform="translate(-413.23 -185.705)" fill="#0d3eac" stroke="#0d3eac" stroke-width="0.75"/><path d="M474.779,214.683s0-.008,0-.011a.7.7,0,0,0-.024-.093.661.661,0,0,0-.023-.069A.81.81,0,0,1,474.779,214.683Z" transform="translate(-412.946 -184.717)" fill="#0d3eac" stroke="#0d3eac" stroke-width="0.75"/><path d="M474.914,215.093a.767.767,0,0,0-.024-.093A.7.7,0,0,1,474.914,215.093Z" transform="translate(-413.084 -185.138)" fill="#0d3eac" stroke="#0d3eac" stroke-width="0.75"/><path d="M474.87,218.477q.015-.049.025-.1A.629.629,0,0,1,474.87,218.477Z" transform="translate(-413.067 -188.042)" fill="#0d3eac" stroke="#0d3eac" stroke-width="0.75"/><path d="M474.678,214.39a.66.66,0,0,1,.023.069.734.734,0,0,0-.031-.089C474.673,214.377,474.676,214.384,474.678,214.39Z" transform="translate(-412.895 -184.597)" fill="#0d3eac" stroke="#0d3eac" stroke-width="0.75"/><path d="M474.63,219.163c.013-.03.024-.062.034-.093A.614.614,0,0,1,474.63,219.163Z" transform="translate(-412.861 -188.634)" fill="#0d3eac" stroke="#0d3eac" stroke-width="0.75"/><path d="M474.24,213.522l-.008-.02a.594.594,0,0,0-.035-.073.207.207,0,0,0-.02-.039l-.017-.03a.7.7,0,0,1,.08.162Z" transform="translate(-412.457 -183.73)" fill="#0d3eac" stroke="#0d3eac" stroke-width="0.75"/><path d="M474.3,213.609a.172.172,0,0,0-.02-.039A.206.206,0,0,1,474.3,213.609Z" transform="translate(-412.56 -183.91)" fill="#0d3eac" stroke="#0d3eac" stroke-width="0.75"/><path d="M474.11,220.288a.435.435,0,0,0,.041-.068A.657.657,0,0,1,474.11,220.288Z" transform="translate(-412.414 -189.622)" fill="#0d3eac" stroke="#0d3eac" stroke-width="0.75"/><path d="M474.1,213.278a.337.337,0,0,0-.03-.048l.013.018Z" transform="translate(-412.38 -183.618)" fill="#0d3eac" stroke="#0d3eac" stroke-width="0.75"/><path d="M473.136,502.42a.978.978,0,0,1-.182.485,1,1,0,0,1-.164.172c.023-.02.044-.04.065-.061A.993.993,0,0,0,473.136,502.42Z" transform="translate(-411.28 -432.015)" fill="#0d3eac" stroke="#0d3eac" stroke-width="0.75"/><path d="M472.889,211.874l-.013-.018a.251.251,0,0,0-.024-.034.827.827,0,0,0-.062-.079.177.177,0,0,0-.016-.018l-.013-.013c-.007-.008-.016-.017-.024-.025l-.058-.056c.024.02.047.041.069.063A.872.872,0,0,1,472.889,211.874Z" transform="translate(-411.186 -182.244)" fill="#0d3eac" stroke="#0d3eac" stroke-width="0.75"/><path d="M473.924,213.024a.251.251,0,0,0-.024-.034A.251.251,0,0,1,473.924,213.024Z" transform="translate(-412.234 -183.412)" fill="#0d3eac" stroke="#0d3eac" stroke-width="0.75"/><path d="M473.75,220.859a.385.385,0,0,0,.042-.059A.385.385,0,0,1,473.75,220.859Z" transform="translate(-412.105 -190.12)" fill="#0d3eac" stroke="#0d3eac" stroke-width="0.75"/><path d="M473.7,212.724a.231.231,0,0,0-.032-.044A.231.231,0,0,1,473.7,212.724Z" transform="translate(-412.036 -183.146)" fill="#0d3eac" stroke="#0d3eac" stroke-width="0.75"/><path d="M473.49,212.465a.322.322,0,0,0-.03-.035A.229.229,0,0,1,473.49,212.465Z" transform="translate(-411.856 -182.931)" fill="#0d3eac" stroke="#0d3eac" stroke-width="0.75"/><path d="M473.22,221.445a.837.837,0,0,0,.058-.065A.5.5,0,0,1,473.22,221.445Z" transform="translate(-411.65 -190.618)" fill="#0d3eac" stroke="#0d3eac" stroke-width="0.75"/><path d="M473.288,212.241a.314.314,0,0,0-.028-.031l.013.013a.159.159,0,0,1,.015.018Z" transform="translate(-411.684 -182.742)" fill="#0d3eac" stroke="#0d3eac" stroke-width="0.75"/><path d="M468.374,210.329l.024.025a.978.978,0,0,0-.8-.3.694.694,0,0,1,.095-.006.983.983,0,0,1,.622.223Z" transform="translate(-406.822 -180.887)" fill="#0d3eac" stroke="#0d3eac" stroke-width="0.75"/><path d="M463.007,220.217a.471.471,0,0,1-.037.038l-1.641,1.511V219.95l.293.286a.976.976,0,0,0,.685.279A.958.958,0,0,0,463.007,220.217Z" transform="translate(-401.437 -189.39)" fill="#0d3eac" stroke="#0d3eac" stroke-width="0.75"/><path d="M472.18,507.186c.027-.018.052-.037.078-.056A.724.724,0,0,1,472.18,507.186Z" transform="translate(-410.756 -436.061)" fill="#0d3eac" stroke="#0d3eac" stroke-width="0.75"/><path d="M399.29,140.16l10.352,10.081a.983.983,0,0,0-.622-.223.7.7,0,0,0-.095.006q-.049,0-.093.013a.776.776,0,0,0-.082.02.422.422,0,0,0-.055.018.293.293,0,0,0-.055.021,0,0,0,0,0-.006,0,.5.5,0,0,0-.073.035.036.036,0,0,0-.017.01.429.429,0,0,0-.072.044.527.527,0,0,0-.066.048.122.122,0,0,0-.025.023.2.2,0,0,0-.028.023l-.759.7-8.3-8.087Z" transform="translate(-348.148 -120.855)" fill="#0d3eac" stroke="#0d3eac" stroke-width="0.75"/><path d="M471.67,507.574c.025-.014.049-.028.072-.044A.65.65,0,0,1,471.67,507.574Z" transform="translate(-410.318 -436.404)" fill="#0d3eac" stroke="#0d3eac" stroke-width="0.75"/><path d="M470.48,508.213a.325.325,0,0,0,.062-.023A.469.469,0,0,1,470.48,508.213Z" transform="translate(-409.296 -436.971)" fill="#0d3eac" stroke="#0d3eac" stroke-width="0.75"/><path d="M469.76,508.456c.023,0,.044-.01.063-.016Z" transform="translate(-408.677 -437.186)" fill="#0d3eac" stroke="#0d3eac" stroke-width="0.75"/><path d="M468.86,508.654l.038,0Z" transform="translate(-407.904 -437.366)" fill="#0d3eac" stroke="#0d3eac" stroke-width="0.75"/><path d="M468.33,508.683l.075,0Z" transform="translate(-407.449 -437.392)" fill="#0d3eac" stroke="#0d3eac" stroke-width="0.75"/><path d="M103.572,496.752H43.67a.977.977,0,0,0,.583-.192l2.408-1.77h53.927l2.408,1.77A.949.949,0,0,0,103.572,496.752Z" transform="translate(-42.691 -425.462)" fill="#0d3eac" stroke="#0d3eac" stroke-width="0.75"/><path d="M466.442,210.18a.762.762,0,0,0-.082.02A.762.762,0,0,1,466.442,210.18Z" transform="translate(-405.757 -180.998)" fill="#0d3eac" stroke="#0d3eac" stroke-width="0.75"/><path d="M466.025,210.32a.422.422,0,0,0-.055.018A.422.422,0,0,1,466.025,210.32Z" transform="translate(-405.422 -181.118)" fill="#0d3eac" stroke="#0d3eac" stroke-width="0.75"/><path d="M465.635,210.45a.442.442,0,0,0-.055.021A.3.3,0,0,1,465.635,210.45Z" transform="translate(-405.087 -181.23)" fill="#0d3eac" stroke="#0d3eac" stroke-width="0.75"/><path d="M465.093,210.61a.711.711,0,0,0-.073.035A.5.5,0,0,1,465.093,210.61Z" transform="translate(-404.606 -181.368)" fill="#0d3eac" stroke="#0d3eac" stroke-width="0.75"/><path d="M464.462,210.93a.464.464,0,0,0-.072.044A.431.431,0,0,1,464.462,210.93Z" transform="translate(-404.065 -181.642)" fill="#0d3eac" stroke="#0d3eac" stroke-width="0.75"/><path d="M463.986,211.24a.725.725,0,0,0-.066.048A.527.527,0,0,1,463.986,211.24Z" transform="translate(-403.661 -181.909)" fill="#0d3eac" stroke="#0d3eac" stroke-width="0.75"/><path d="M458.947,211.74a.972.972,0,0,0-.34.741v.418l-.447-.436.759-.7A.2.2,0,0,1,458.947,211.74Z" transform="translate(-398.714 -182.338)" fill="#0d3eac" stroke="#0d3eac" stroke-width="0.75"/><path d="M320.137,390.7v.958h-2.006L296.94,376.073l1.468-1.353Z" transform="translate(-260.235 -322.329)" fill="#0d3eac" stroke="#0d3eac" stroke-width="0.75"/><path d="M406.3,217.3v1.815l-9.038,8.328a.977.977,0,0,0,.286-.693v-2.234l8.3-7.652Z" transform="translate(-346.404 -186.736)" fill="#0d3eac" stroke="#0d3eac" stroke-width="0.75"/><path d="M387.376,271.11v2.234a.978.978,0,1,1-1.956,0v-.432Z" transform="translate(-336.234 -233.334)" fill="#0d3eac" stroke="#0d3eac" stroke-width="0.75"/><path d="M387.376,145.778v15.739l-1.956,1.8v-19.8a.973.973,0,0,0,.293.639Z" transform="translate(-336.234 -123.741)" fill="#0d3eac" stroke="#0d3eac" stroke-width="0.75"/><path d="M387.376,136.709v2.732l-1.663-1.619a.972.972,0,0,1-.293-.639v-.124a.959.959,0,0,1,.275-.621.978.978,0,0,1,1.384-.018Z" transform="translate(-336.234 -117.404)" fill="#0d3eac" stroke="#0d3eac" stroke-width="0.75"/><path d="M325.722,61.5V71.754l-.3-.289a.978.978,0,0,0-1.384.018.959.959,0,0,0-.275.621V62.476H313.64a.967.967,0,0,0,.694-.289.978.978,0,0,0,0-1.384l-.286-.284h10.7A.977.977,0,0,1,325.722,61.5Z" transform="translate(-274.58 -52.449)" fill="#0d3eac" stroke="#0d3eac" stroke-width="0.75"/><path d="M306.582,285.014,293.9,296.7l-.958-.7a.985.985,0,0,0-1.251.076l13.221-12.185v.432a.978.978,0,0,0,1.67.693Z" transform="translate(-255.726 -244.311)" fill="#0d3eac" stroke="#0d3eac" stroke-width="0.75"/><path d="M385.407,142.64v.124A.936.936,0,0,1,385.407,142.64Z" transform="translate(-336.221 -122.985)" fill="#0d3eac" stroke="#0d3eac" stroke-width="0.75"/><path d="M193.666,129.315a9.814,9.814,0,0,1-.676,3.625,10.49,10.49,0,0,1-2.027,3.2,8.921,8.921,0,0,1-2.521,2,5.958,5.958,0,0,1-2.731.666,3.282,3.282,0,0,1-1.449-.269,1.712,1.712,0,0,1-.791-.76,3.376,3.376,0,0,1-.243-1.113l-.024-.214-.14.164a7.279,7.279,0,0,1-1.92,1.588,4.073,4.073,0,0,1-4.376-.083,4.924,4.924,0,0,1-1.789-2.1,7.074,7.074,0,0,1-.694-3.127,9.238,9.238,0,0,1,1.081-4.212,8.126,8.126,0,0,1,2.674-3.164,5.647,5.647,0,0,1,3.089-1.052,4.3,4.3,0,0,1,2.172.6,5.173,5.173,0,0,1,1.784,1.817l.121.2.051-.229.251-1.151a1.082,1.082,0,0,1,1.054-.848,1.077,1.077,0,0,1,1.052,1.3L186,133.7a19.707,19.707,0,0,0-.4,2.092.927.927,0,0,0,.3.69,1.037,1.037,0,0,0,.728.284,3.632,3.632,0,0,0,1.91-.834,7.575,7.575,0,0,0,2.442-2.9,8.409,8.409,0,0,0,.9-3.751,8.107,8.107,0,0,0-4.6-7.352,10.927,10.927,0,0,0-5.046-1.175,11.556,11.556,0,0,0-5.759,1.477,10.2,10.2,0,0,0-4.044,4.236,12.657,12.657,0,0,0-1.436,5.9,10.861,10.861,0,0,0,1.436,5.689,8.644,8.644,0,0,0,4.161,3.532,15.424,15.424,0,0,0,6,1.137,13.263,13.263,0,0,0,5.909-1.183,9.672,9.672,0,0,0,3.294-2.511.923.923,0,0,1,1.552.2.922.922,0,0,1-.15.993,11.267,11.267,0,0,1-1.183,1.155,12.459,12.459,0,0,1-3.913,2.288,15.89,15.89,0,0,1-5.476.844,18.706,18.706,0,0,1-5.446-.76,11.539,11.539,0,0,1-4.236-2.274,10.083,10.083,0,0,1-2.636-3.49,13.2,13.2,0,0,1-1.114-5.414,14.876,14.876,0,0,1,1.329-6.174,13.736,13.736,0,0,1,1.961-3.178,11.4,11.4,0,0,1,5.931-3.761,15.455,15.455,0,0,1,3.933-.48,12.794,12.794,0,0,1,5.913,1.347,9.918,9.918,0,0,1,4.123,4.007A10.061,10.061,0,0,1,193.666,129.315Zm-9.739,3.587a8.073,8.073,0,0,0,.48-2.721,4.063,4.063,0,0,0-.9-2.818,2.848,2.848,0,0,0-2.2-1,3.189,3.189,0,0,0-1.612.433,4.925,4.925,0,0,0-1.464,1.4,7.9,7.9,0,0,0-1.137,2.339,8.642,8.642,0,0,0-.429,2.525,4.251,4.251,0,0,0,.868,2.848,2.573,2.573,0,0,0,1.989,1.016,3.322,3.322,0,0,0,1.576-.447,5.661,5.661,0,0,0,1.6-1.333A7,7,0,0,0,183.928,132.9Z" transform="translate(-150.505 -102.663)" fill="#0d3eac" stroke="#0d3eac" stroke-width="0.75"/><path d="M299.874,60.8a.978.978,0,0,1,0,1.384.977.977,0,0,1-1.384,0L296.81,60.52h2.777Z" transform="translate(-260.124 -52.449)" fill="#0d3eac" stroke="#0d3eac" stroke-width="0.75"/><path d="M256.694,5.35l7.84,7.782h-2.777L256,7.418l.69-.684A.978.978,0,0,0,256.694,5.35Z" transform="translate(-225.07 -5.061)" fill="#0d3eac" stroke="#0d3eac" stroke-width="0.75"/><path d="M214.535,62.476H198.26a1,1,0,0,0,.69-.285l1.687-1.672h11.524l1.684,1.672A.973.973,0,0,0,214.535,62.476Z" transform="translate(-175.475 -52.449)" fill="#0d3eac" stroke="#0d3eac" stroke-width="0.75"/><path d="M292.031,369.287l-1.468,1.353-.649-.477a.984.984,0,0,1-.21-1.37,1.087,1.087,0,0,1,.118-.134.985.985,0,0,1,1.251-.076Z" transform="translate(-253.858 -316.895)" fill="#0d3eac" stroke="#0d3eac" stroke-width="0.75"/><path d="M226.627,372.25l-5.1,4.7a.981.981,0,0,1-.666.261h-.024a.963.963,0,0,1-.662-.261l-5.1-4.7.652-.48a.978.978,0,0,0,.209-1.37.94.94,0,0,0-.075-.09l4.986,4.6,5.034-4.639a1.086,1.086,0,0,0-.118.134.984.984,0,0,0,.21,1.37Z" transform="translate(-189.922 -318.506)" fill="#0d3eac" stroke="#0d3eac" stroke-width="0.75"/><path d="M250.735,3.591a.978.978,0,0,1,0,1.384l-.69.684-.69-.684a.978.978,0,0,1,0-1.384c.025-.025.051-.048.078-.071a.989.989,0,0,1,.161-.106h0a1.015,1.015,0,0,1,.267-.093.987.987,0,0,1,.375,0,1.017,1.017,0,0,1,.267.093h0a.988.988,0,0,1,.161.106.8.8,0,0,1,.073.066Z" transform="translate(-219.111 -3.302)" fill="#0d3eac" stroke="#0d3eac" stroke-width="0.75"/><path d="M259.391,4.206a.989.989,0,0,0-.161-.106A.834.834,0,0,1,259.391,4.206Z" transform="translate(-227.845 -3.988)" fill="#0d3eac" stroke="#0d3eac" stroke-width="0.75"/><path d="M257.33,3.43a.924.924,0,0,1,.267.093A1.016,1.016,0,0,0,257.33,3.43Z" transform="translate(-226.213 -3.412)" fill="#0d3eac" stroke="#0d3eac" stroke-width="0.75"/><path d="M203.948,7.418l-5.768,5.714H195.4l7.854-7.782a.978.978,0,0,0,0,1.384Z" transform="translate(-173.018 -5.061)" fill="#0d3eac" stroke="#0d3eac" stroke-width="0.75"/><path d="M252.78,3.523a.923.923,0,0,1,.267-.093A1.015,1.015,0,0,0,252.78,3.523Z" transform="translate(-222.304 -3.412)" fill="#0d3eac" stroke="#0d3eac" stroke-width="0.75"/><path d="M251.63,4.206a.831.831,0,0,1,.161-.106A.987.987,0,0,0,251.63,4.206Z" transform="translate(-221.317 -3.988)" fill="#0d3eac" stroke="#0d3eac" stroke-width="0.75"/><path d="M206.99,368.774a.978.978,0,0,1-.209,1.37l-.652.48-1.47-1.353.961-.707a.974.974,0,0,1,1.191.024l.1.093,0,0A.941.941,0,0,1,206.99,368.774Z" transform="translate(-180.972 -316.876)" fill="#0d3eac" stroke="#0d3eac" stroke-width="0.75"/><path d="M220.012,369.993l-.1-.093A.8.8,0,0,1,220.012,369.993Z" transform="translate(-194.071 -318.188)" fill="#0d3eac" stroke="#0d3eac" stroke-width="0.75"/><path d="M116.41,283.89l13.165,12.132a.974.974,0,0,0-1.191-.024l-.961.707L114.74,285.014a.979.979,0,0,0,1.67-.693Z" transform="translate(-103.736 -244.311)" fill="#0d3eac" stroke="#0d3eac" stroke-width="0.75"/><path d="M194.678,60.52l-1.687,1.672a1,1,0,0,1-.69.285.979.979,0,0,1-.69-1.673l.286-.284Z" transform="translate(-169.516 -52.449)" fill="#0d3eac" stroke="#0d3eac" stroke-width="0.75"/><path d="M73.81,376.093,52.621,391.674H50.61v-.955L72.34,374.74Z" transform="translate(-48.652 -322.346)" fill="#0d3eac" stroke="#0d3eac" stroke-width="0.75"/><path d="M124.778,62.476H114.666v9.631a.959.959,0,0,0-.275-.621.98.98,0,0,0-1.384-.018l-.3.289V61.5a.977.977,0,0,1,.978-.978h10.687l-.286.284a.979.979,0,0,0,.69,1.673Z" transform="translate(-101.992 -52.449)" fill="#0d3eac" stroke="#0d3eac" stroke-width="0.75"/><path d="M126.58,142.67a.911.911,0,0,1,0,.124Z" transform="translate(-113.906 -123.011)" fill="#0d3eac" stroke="#0d3eac" stroke-width="0.75"/><path d="M114.666,272.913v.432a.978.978,0,1,1-1.956,0V271.11Z" transform="translate(-101.992 -233.334)" fill="#0d3eac" stroke="#0d3eac" stroke-width="0.75"/><path d="M114.666,143.55v19.8l-1.956-1.8V145.808l1.663-1.619A.972.972,0,0,0,114.666,143.55Z" transform="translate(-101.992 -123.767)" fill="#0d3eac" stroke="#0d3eac" stroke-width="0.75"/><path d="M114.666,137.092v.124a.972.972,0,0,1-.293.639l-1.663,1.619v-2.732l.3-.289a.98.98,0,0,1,1.384.018A.959.959,0,0,1,114.666,137.092Z" transform="translate(-101.992 -117.433)" fill="#0d3eac" stroke="#0d3eac" stroke-width="0.75"/><path d="M59.708,227.439l-9.038-8.328V217.3l.449-.437,8.3,7.652v2.234A.977.977,0,0,0,59.708,227.439Z" transform="translate(-48.704 -186.736)" fill="#0d3eac" stroke="#0d3eac" stroke-width="0.75"/><path d="M49.818,140.19v2.732L41.516,151l-.76-.7a.141.141,0,0,0-.023-.018.434.434,0,0,0-.039-.032.4.4,0,0,0-.058-.042.652.652,0,0,0-.072-.044l-.017-.01a.622.622,0,0,0-.062-.03.109.109,0,0,0-.024-.01.215.215,0,0,0-.038-.016.518.518,0,0,0-.066-.021.55.55,0,0,0-.083-.02l-.027,0a.482.482,0,0,0-.065-.008.691.691,0,0,0-.093-.006.973.973,0,0,0-.6.2Z" transform="translate(-39.101 -120.881)" fill="#0d3eac" stroke="#0d3eac" stroke-width="0.75"/><path d="M40.7,488.975l-2.408,1.77a.977.977,0,0,1-.583.192l-.075,0-.038,0a.659.659,0,0,1-.089-.014c-.023,0-.044-.01-.063-.016a.235.235,0,0,1-.038-.013.328.328,0,0,1-.062-.023.654.654,0,0,1-.106-.049q-.032-.017-.063-.038c-.021-.014-.041-.028-.061-.044a.6.6,0,0,1-.065-.055l-.014-.013L37,490.628c-.014-.014-.027-.03-.039-.044s-.025-.031-.037-.048-.031-.044-.045-.066-.028-.047-.039-.069-.027-.058-.038-.087a.452.452,0,0,1-.027-.073c-.007-.023-.013-.047-.018-.071l-.008-.041-.008-.058a1.086,1.086,0,0,1-.007-.117.982.982,0,0,1,.4-.789l1.557-1.145v.955Z" transform="translate(-36.73 -419.647)" fill="#0d3eac" stroke="#0d3eac" stroke-width="0.75"/><path d="M49.083,212.488l-.449.437v-.419a.977.977,0,0,0-.286-.693c-.016-.016-.031-.03-.048-.044a.146.146,0,0,1,.023.018Z" transform="translate(-46.668 -182.364)" fill="#0d3eac" stroke="#0d3eac" stroke-width="0.75"/><path d="M38.765,211.04v.419l-.293.285a.976.976,0,0,1-.686.279.966.966,0,0,1-.614-.217l-.048-.044a.977.977,0,0,1-.315-.714c0-.032,0-.065,0-.1a.975.975,0,0,1,.292-.607l.052-.051a.974.974,0,0,1,.721-.229.513.513,0,0,1,.065.008l.027,0a.791.791,0,0,1,.083.02.511.511,0,0,1,.066.021.215.215,0,0,1,.038.016.106.106,0,0,1,.024.01.5.5,0,0,1,.062.03l.017.01a.465.465,0,0,1,.072.044.4.4,0,0,1,.058.042.208.208,0,0,1,.039.032c.017.014.032.028.048.044a.977.977,0,0,1,.286.693Z" transform="translate(-36.799 -180.897)" fill="#0d3eac" stroke="#0d3eac" stroke-width="0.75"/><path d="M40.973,219.96v1.814l-1.593-1.467a.966.966,0,0,0,.614.217.976.976,0,0,0,.686-.279Z" transform="translate(-39.006 -189.399)" fill="#0d3eac" stroke="#0d3eac" stroke-width="0.75"/><path d="M38.7,218.69l-.008,36-1.557,1.145a.982.982,0,0,0-.4.789l.01-40.165a.606.606,0,0,1,.006-.087c0,.031,0,.063,0,.1a.942.942,0,0,0,.123.47.887.887,0,0,0,.155.212.711.711,0,0,0,.085.076Z" transform="translate(-36.73 -186.315)" fill="#0d3eac" stroke="#0d3eac" stroke-width="0.75"/><path d="M48.059,211.572a.211.211,0,0,0-.039-.032A.441.441,0,0,1,48.059,211.572Z" transform="translate(-46.427 -182.166)" fill="#0d3eac" stroke="#0d3eac" stroke-width="0.75"/><path d="M47.172,210.974a.47.47,0,0,0-.072-.044A.662.662,0,0,1,47.172,210.974Z" transform="translate(-45.637 -181.642)" fill="#0d3eac" stroke="#0d3eac" stroke-width="0.75"/><path d="M46.6,210.68a.5.5,0,0,0-.062-.03A.615.615,0,0,1,46.6,210.68Z" transform="translate(-45.156 -181.402)" fill="#0d3eac" stroke="#0d3eac" stroke-width="0.75"/><path d="M46.138,210.486a.213.213,0,0,0-.038-.016A.213.213,0,0,1,46.138,210.486Z" transform="translate(-44.778 -181.247)" fill="#0d3eac" stroke="#0d3eac" stroke-width="0.75"/><path d="M45.7,210.341a.521.521,0,0,0-.066-.021A.521.521,0,0,1,45.7,210.341Z" transform="translate(-44.375 -181.118)" fill="#0d3eac" stroke="#0d3eac" stroke-width="0.75"/><path d="M45.123,210.2a.8.8,0,0,0-.083-.02A.549.549,0,0,1,45.123,210.2Z" transform="translate(-43.868 -180.998)" fill="#0d3eac" stroke="#0d3eac" stroke-width="0.75"/><path d="M44.455,210.1a.513.513,0,0,0-.065-.008A.482.482,0,0,1,44.455,210.1Z" transform="translate(-43.309 -180.921)" fill="#0d3eac" stroke="#0d3eac" stroke-width="0.75"/><path d="M40,210.056a.974.974,0,0,0-.721.229l.03-.03a.973.973,0,0,1,.6-.2A.69.69,0,0,1,40,210.056Z" transform="translate(-38.92 -180.887)" fill="#0d3eac" stroke="#0d3eac" stroke-width="0.75"/><path d="M43.14,508.68l.075,0Z" transform="translate(-42.236 -437.392)" fill="#0d3eac" stroke="#0d3eac" stroke-width="0.75"/><path d="M42.87,508.65l.038,0Z" transform="translate(-42.004 -437.366)" fill="#0d3eac" stroke="#0d3eac" stroke-width="0.75"/><path d="M41.79,508.44c.02.006.041.011.063.016Z" transform="translate(-41.076 -437.186)" fill="#0d3eac" stroke="#0d3eac" stroke-width="0.75"/><path d="M41.08,508.19a.324.324,0,0,0,.062.023A.466.466,0,0,1,41.08,508.19Z" transform="translate(-40.466 -436.971)" fill="#0d3eac" stroke="#0d3eac" stroke-width="0.75"/><path d="M39.88,507.57q.032.021.063.038Q39.912,507.591,39.88,507.57Z" transform="translate(-39.436 -436.439)" fill="#0d3eac" stroke="#0d3eac" stroke-width="0.75"/><path d="M38.073,211.5l-.03.03a.98.98,0,0,0-.089.083,1.023,1.023,0,0,0-.114.15A.92.92,0,0,1,38.073,211.5Z" transform="translate(-37.683 -182.132)" fill="#0d3eac" stroke="#0d3eac" stroke-width="0.75"/><path d="M37.872,220.624l.048.044a.711.711,0,0,1-.085-.076.887.887,0,0,1-.155-.212.983.983,0,0,0,.192.244Z" transform="translate(-37.546 -189.759)" fill="#0d3eac" stroke="#0d3eac" stroke-width="0.75"/><path d="M37.184,211.71l-.052.051a.975.975,0,0,0-.292.607c0-.03.007-.058.011-.087a1.007,1.007,0,0,1,.13-.337,1.022,1.022,0,0,1,.114-.15A.974.974,0,0,1,37.184,211.71Z" transform="translate(-36.824 -182.312)" fill="#0d3eac" stroke="#0d3eac" stroke-width="0.75"/><path d="M39.055,506.925a.79.79,0,0,1-.065-.055A.609.609,0,0,0,39.055,506.925Z" transform="translate(-38.671 -435.838)" fill="#0d3eac" stroke="#0d3eac" stroke-width="0.75"/><path d="M38.63,506.51l.037.038-.02-.018A.105.105,0,0,1,38.63,506.51Z" transform="translate(-38.362 -435.528)" fill="#0d3eac" stroke="#0d3eac" stroke-width="0.75"/><path d="M38.09,505.86c.011.017.024.032.037.048A.29.29,0,0,1,38.09,505.86Z" transform="translate(-37.898 -434.97)" fill="#0d3eac" stroke="#0d3eac" stroke-width="0.75"/><path d="M37.77,505.39c.014.023.03.044.045.066A.4.4,0,0,1,37.77,505.39Z" transform="translate(-37.623 -434.566)" fill="#0d3eac" stroke="#0d3eac" stroke-width="0.75"/><path d="M37.49,504.9c.011.023.025.047.039.069A.488.488,0,0,1,37.49,504.9Z" transform="translate(-37.383 -434.146)" fill="#0d3eac" stroke="#0d3eac" stroke-width="0.75"/><path d="M37.03,503.76a.459.459,0,0,0,.027.073A.512.512,0,0,1,37.03,503.76Z" transform="translate(-36.988 -433.166)" fill="#0d3eac" stroke="#0d3eac" stroke-width="0.75"/><path d="M37.05,213.36a1.007,1.007,0,0,0-.13.337A.917.917,0,0,1,37.05,213.36Z" transform="translate(-36.893 -183.73)" fill="#0d3eac" stroke="#0d3eac" stroke-width="0.75"/><path d="M36.851,215.75c0,.03-.008.058-.011.087A.463.463,0,0,1,36.851,215.75Z" transform="translate(-36.824 -185.783)" fill="#0d3eac" stroke="#0d3eac" stroke-width="0.75"/><path d="M36.84,502.97l.008.041Z" transform="translate(-36.824 -432.488)" fill="#0d3eac" stroke="#0d3eac" stroke-width="0.75"/><path d="M36.81,217.05a.989.989,0,0,0,.123.47A.942.942,0,0,1,36.81,217.05Z" transform="translate(-36.799 -186.899)" fill="#0d3eac" stroke="#0d3eac" stroke-width="0.75"/><path d="M36.78,502.56l.008.058A.407.407,0,0,1,36.78,502.56Z" transform="translate(-36.773 -432.136)" fill="#0d3eac" stroke="#0d3eac" stroke-width="0.75"/></g></g></svg>