<svg xmlns="http://www.w3.org/2000/svg" width="52.361" height="52.362" viewBox="0 0 52.361 52.362"><path d="M235.273,46.545A3.273,3.273,0,1,0,232,43.273,3.273,3.273,0,0,0,235.273,46.545Zm0-4.909a1.636,1.636,0,1,1-1.636,1.636A1.636,1.636,0,0,1,235.273,41.636Z" transform="translate(-208.274 -35.909)" fill="#0d3eac"/><path d="M47.352,8.608a.818.818,0,0,0-.718-.426H41.725v-4.3A3.891,3.891,0,0,0,37.839,0H14.522a3.891,3.891,0,0,0-3.886,3.886V25.014L.2,37.1a.818.818,0,0,0-.2.535V52.361H1.636V37.939L16.289,20.973a3.47,3.47,0,0,1,.211.534,3.691,3.691,0,0,1-.791,3.365q-.022.03-.042.062L9.121,35.569a.818.818,0,0,0,.058.94L12.451,40.6a.818.818,0,0,0,1.217.067c.049-.049,4.494-4.433,8.568-3.519l-8.089,8.089a.771.771,0,0,0-.237.65c.009.18.046,2.682-4.338,4.057a.818.818,0,0,0-.573.78v1.636h1.636V51.312c4.2-1.519,4.824-4.129,4.9-5.15l2.8-2.8h19.5a3.892,3.892,0,0,0,3.846-3.333,9.524,9.524,0,0,0,.858,1.193V52.361h1.636V40.907a.818.818,0,0,0-.24-.579,8.983,8.983,0,0,1-2.215-5.967A9.087,9.087,0,0,1,43.94,28.4a.818.818,0,0,0,.205-.814l-2.419-8.064c.019-1.617.414-5.578,1.939-6.888l3,10.5a.82.82,0,0,0,.106.229l1.636,2.454,1.361-.908L48.2,22.56,44.966,11.229a.818.818,0,0,0-.985-.569,3.752,3.752,0,0,0-2.256,1.761v-2.6h4.423l4.576,8.389-.069,34.152,1.636,0L52.361,18a.818.818,0,0,0-.1-.394ZM10.816,35.936l2.9-4.707,2.65.53V36.7a16.569,16.569,0,0,0-1.636,1V34.362H13.09v4.417Zm29.272,3.538a2.252,2.252,0,0,1-2.25,2.25H19.974l4.33-4.33a.818.818,0,0,0-.213-1.31A7.531,7.531,0,0,0,18,35.969v-4.88a.818.818,0,0,0-.658-.8l-2.714-.543,2.413-3.922a5.085,5.085,0,0,0-.1-6.765.818.818,0,0,0-1.2.044l-3.471,4.02V3.886a2.252,2.252,0,0,1,2.25-2.25H37.839a2.252,2.252,0,0,1,2.25,2.25Zm2.358-11.858a9.707,9.707,0,0,0-.722,1.014V25.21Z" fill="#0d3eac"/><path d="M179.272,101.23h8.6l-.289,1.636h-9.131V104.5h9.818a.818.818,0,0,0,.806-.676l2.357-13.358,3.543-.709-.321-1.6-4.091.818a.818.818,0,0,0-.645.66l-.458,2.6H176.818a.818.818,0,0,0-.776,1.077l2.454,7.363A.818.818,0,0,0,179.272,101.23Zm9.9-7.363-1.011,5.727h-8.3l-1.909-5.727Z" transform="translate(-158 -79.141)" fill="#0d3eac"/><path d="M194.454,256a2.454,2.454,0,1,0,2.454,2.454A2.454,2.454,0,0,0,194.454,256Zm0,3.273a.818.818,0,1,1,.818-.818A.818.818,0,0,1,194.454,259.273Z" transform="translate(-172.365 -229.82)" fill="#0d3eac"/><path d="M268.909,258.454a2.454,2.454,0,1,0-2.454,2.454A2.454,2.454,0,0,0,268.909,258.454Zm-3.273,0a.818.818,0,1,1,.818.818A.818.818,0,0,1,265.636,258.454Z" transform="translate(-237.002 -229.82)" fill="#0d3eac"/><path d="M0,0H1.636V3.373H0Z" transform="translate(22.118 15.73) rotate(-14.064)" fill="#0d3eac"/><path d="M248,152h1.636v3.273H248Z" transform="translate(-222.638 -136.455)" fill="#0d3eac"/><path d="M0,0H3.373V1.636H0Z" transform="translate(27.851 18.629) rotate(-75.936)" fill="#0d3eac"/><path d="M144,32h1.636v1.636H144Z" transform="translate(-129.274 -28.727)" fill="#0d3eac"/><path d="M168,32h1.636v1.636H168Z" transform="translate(-150.819 -28.727)" fill="#0d3eac"/><path d="M448,32h1.636v1.636H448Z" transform="translate(-402.185 -28.727)" fill="#0d3eac"/><path d="M56,200h1.636v1.636H56Z" transform="translate(-50.273 -179.547)" fill="#0d3eac"/><path d="M280,448h1.636v1.636H280Z" transform="translate(-251.365 -402.185)" fill="#0d3eac"/></svg>