<svg xmlns="http://www.w3.org/2000/svg" width="44.195" height="58.864" viewBox="0 0 44.195 58.864"><g transform="translate(-0.284)"><path d="M39.723,54.188H39.64a4.54,4.54,0,0,0-3.06,1.163,4.772,4.772,0,0,0-4.431-3.234,4.6,4.6,0,0,0-3.284,1.413,4.7,4.7,0,0,0-4.2-2.684h-.088a4.309,4.309,0,0,0-2.7.9v-11.4a4.894,4.894,0,0,0-4.755-5,4.885,4.885,0,0,0-4.742,4.994L12.36,62.963l-1.28-1.555a6.457,6.457,0,0,0-4.563-2.4A6.354,6.354,0,0,0,1.757,60.7l-1.114.923A.99.99,0,0,0,.4,62.839L11.227,83.658a11.167,11.167,0,0,0,9.833,6.178H33.266v-.011c6.189,0,11.206-5.37,11.213-11.964,0-2.95-.009-5.149-.007-6.931.006-4.768,0-6.528-.011-11.781a4.861,4.861,0,0,0-4.738-4.961Zm2.754,16.735c0,1.783,0,3.99-.008,6.941-.005,5.5-4.16,9.991-9.261,9.991H21.061a9.194,9.194,0,0,1-8.076-5.112L2.522,62.639l.516-.431c.013-.011.026-.023.038-.034a4.4,4.4,0,0,1,3.3-1.186,4.493,4.493,0,0,1,3.17,1.679l3.031,3.688a.99.99,0,0,0,1.755-.628l.018-25.385a2.915,2.915,0,0,1,2.774-3.015A2.915,2.915,0,0,1,19.9,40.344V55.65c0,.053,0,.107,0,.161,0,.023,0,.047,0,.07v6.544a.99.99,0,0,0,1.98,0V55.683a2.776,2.776,0,0,1,2.7-2.857h.088a2.891,2.891,0,0,1,2.78,2.986V61.8a.99.99,0,1,0,1.98,0V57.1a2.737,2.737,0,1,1,5.446,0v4.432a.99.99,0,0,0,1.98,0v-2.4a2.877,2.877,0,0,1,2.785-2.966h.083a2.873,2.873,0,0,1,2.751,2.983c.012,5.249.01,7.007,0,11.772Zm0,0" transform="translate(0 -30.972)" fill="#0d3eac"/><path d="M65.6,9.8a.99.99,0,0,0,.99-.99,6.862,6.862,0,0,1,13.724,0,.99.99,0,0,0,1.98,0,8.842,8.842,0,0,0-17.684,0A.99.99,0,0,0,65.6,9.8Zm0,0" transform="translate(-56.363)" fill="#0d3eac"/></g></svg>