<svg xmlns="http://www.w3.org/2000/svg" width="71.326" height="62.682" viewBox="0 0 71.326 62.682"><g transform="translate(0 -31.022)"><g transform="translate(37.783 31.022)"><path d="M273.311,31.022a2.09,2.09,0,0,0-2.089,2.089v8.358a2.089,2.089,0,0,0,4.179,0V33.111A2.089,2.089,0,0,0,273.311,31.022Z" transform="translate(-271.222 -31.022)" fill="#0d3eac"/></g><g transform="translate(46.141 35.201)"><g transform="translate(0 0)"><path d="M343.141,61.631a2.089,2.089,0,0,0-2.955,0l-8.358,8.358a2.089,2.089,0,0,0,2.955,2.955l8.358-8.358A2.089,2.089,0,0,0,343.141,61.631Z" transform="translate(-331.216 -61.019)" fill="#0d3eac"/></g></g><g transform="translate(21.068 35.201)"><g transform="translate(0 0)"><path d="M163.16,69.989,154.8,61.631a2.089,2.089,0,1,0-2.955,2.955l8.358,8.358a2.089,2.089,0,0,0,2.955-2.955Z" transform="translate(-151.235 -61.019)" fill="#0d3eac"/></g></g><g transform="translate(0 51.916)"><path d="M69.236,181.007h-39.7a20.924,20.924,0,0,0-19.083,12.388H6.268a6.268,6.268,0,0,0,0,12.537H9.035a20.9,20.9,0,1,0,40.978-8.209H69.236a2.09,2.09,0,0,0,2.089-2.089V183.1A2.09,2.09,0,0,0,69.236,181.007ZM8.645,201.753H6.268a2.089,2.089,0,1,1,0-4.179H9.1A20.894,20.894,0,0,0,8.645,201.753Zm38.627-8.209a2.091,2.091,0,0,0-1.97,2.786,16.718,16.718,0,1,1-15.765-11.143H67.146v8.358Z" transform="translate(0 -181.007)" fill="#0d3eac"/></g><g transform="translate(21.068 64.453)"><path d="M159.592,271a8.358,8.358,0,1,0,8.358,8.358A8.367,8.367,0,0,0,159.592,271Zm0,12.536a4.179,4.179,0,1,1,4.179-4.179A4.184,4.184,0,0,1,159.592,283.535Z" transform="translate(-151.234 -270.999)" fill="#0d3eac"/></g></g></svg>