<svg xmlns="http://www.w3.org/2000/svg" viewBox="0 0 24 20"><path d="M23.55,6.6a.28.28,0,0,1,.45.25V17.5A2.39,2.39,0,0,1,21.75,20H2.25A2.39,2.39,0,0,1,0,17.5V6.85a.28.28,0,0,1,.45-.24c1.05.91,2.45,2.06,7.23,5.92,1,.8,2.66,2.49,4.32,2.48s3.38-1.71,4.33-2.48C21.11,8.67,22.5,7.51,23.55,6.6ZM12,13.33c1.09,0,2.65-1.52,3.44-2.15,6.22-5,6.69-5.46,8.13-6.71a1.3,1.3,0,0,0,.43-1v-1A2.39,2.39,0,0,0,21.75,0H2.25A2.39,2.39,0,0,0,0,2.5v1a1.31,1.31,0,0,0,.43,1c1.44,1.25,1.91,1.69,8.13,6.71.79.63,2.35,2.17,3.44,2.15Z"/></svg>